<svg width="19" height="19" viewBox="0 0 19 19" fill="none" xmlns="http://www.w3.org/2000/svg">
<path d="M15.2401 1.86326H3.24011C2.81566 1.86326 2.40866 2.03244 2.10862 2.33347C1.8086 2.6345 1.64011 3.0427 1.64011 3.46827V15.5084C1.64011 15.934 1.8086 16.3422 2.10862 16.6432C2.40866 16.9442 2.81566 17.1134 3.24011 17.1134H15.2401C15.6646 17.1134 16.0716 16.9442 16.3716 16.6432C16.6716 16.3422 16.8401 15.934 16.8401 15.5084V3.46827C16.8401 3.0427 16.6716 2.6345 16.3716 2.33347C16.0716 2.03244 15.6646 1.86326 15.2401 1.86326ZM3.24011 15.7847C3.16729 15.7847 3.09737 15.7556 3.04578 15.7039C2.99417 15.6521 2.96511 15.5818 2.96511 15.5084V8.83583H9.61511C9.68794 8.83583 9.75785 8.86486 9.80945 8.91663C9.86106 8.96841 9.89011 9.03871 9.89011 9.11209V15.7847H3.24011ZM15.5151 15.5084C15.5151 15.5818 15.4861 15.6521 15.4344 15.7039C15.3829 15.7556 15.3129 15.7847 15.2401 15.7847H11.2151V9.11209C11.2151 8.68652 11.0466 8.27831 10.7466 7.97729C10.4466 7.67625 10.0396 7.50707 9.61511 7.50707H2.96511V3.46827C2.96511 3.3949 2.99417 3.3246 3.04578 3.27281C3.09737 3.22104 3.16729 3.19202 3.24011 3.19202H15.2401C15.3129 3.19202 15.3829 3.22104 15.4344 3.27281C15.4861 3.3246 15.5151 3.3949 15.5151 3.46827V15.5084Z" fill="#757575" stroke="#757575" stroke-width="0.2"/>
</svg>
