<svg width="192" height="149" viewBox="0 0 192 149" fill="none" xmlns="http://www.w3.org/2000/svg">
<g opacity="0.1">
<path d="M97.987 61.5764C96.5148 59.6001 94.3509 59.0154 91.897 58.7237C90.3205 58.7001 88.9225 59.189 87.5839 59.8486C86.2454 60.5083 85.6095 61.4971 84.7989 62.5471C84.1631 63.5359 83.3524 64.5858 82.9508 65.6844C82.4934 67.1857 82.0359 68.687 82.5712 70.2244C82.7497 70.7368 82.8128 71.4812 82.9913 71.9937L82.8165 72.0548C81.9317 70.6396 80.3516 70.0424 79.4668 68.6272C78.582 67.212 77.1729 65.9802 75.0685 65.5663C72.9009 64.408 70.5697 65.0316 68.3573 65.9968C65.0965 67.3286 61.7204 68.8924 59.2848 71.4686C58.4148 72.3477 57.9537 73.2755 57.552 74.374C57.3252 75.4114 56.864 76.3392 56.9867 77.2544C57.0461 77.4252 56.8156 77.8891 56.9346 78.2307L56.8193 78.4626C56.585 78.3529 56.2355 78.4751 56.1166 78.1335C55.4697 77.4016 55.057 76.7794 54.4101 76.0475C53.529 75.2059 52.5326 74.5962 51.5362 73.9865C48.7849 72.8407 46.3237 71.4019 43.5724 70.2562C42.8697 69.927 42.2264 69.7687 41.4085 69.6715C40.7653 69.5131 39.5457 70.5145 39.1998 71.2103C38.3334 72.6629 38.1102 74.2739 37.3033 75.8975C36.6674 76.8863 36.8495 77.9723 36.6821 79.1806C36.5779 81.1332 36.2394 82.9762 36.3694 85.0385C36.4994 87.1009 36.3951 89.0536 36.8746 90.9937C36.9341 91.1645 37.0531 91.5062 37.1125 91.677C37.4694 92.7019 37.3541 92.9339 36.2461 93.1297C34.9633 93.3866 33.7401 93.8144 32.5168 94.2421C29.1965 95.4031 25.8762 96.5642 22.3811 97.7863C21.1578 98.214 19.9345 98.6418 18.6518 98.8987C17.8933 98.9723 17.488 99.4973 16.789 99.7417C14.7514 100.646 12.4796 101.44 10.3825 102.173C10.033 102.296 9.743 102.589 9.38981 102.137C9.33034 101.967 9.15558 102.028 8.98083 102.089C8.16653 102.565 7.7091 104.066 8.00649 104.921C8.24439 105.604 8.59759 106.055 9.01026 106.677C9.12921 107.019 9.30395 106.958 9.65346 106.836C10.583 106.127 11.5163 105.993 12.6243 105.797C13.7323 105.601 15.015 105.344 16.0636 104.977C16.4131 104.855 16.7626 104.733 17.2274 104.379C17.4579 103.915 18.2164 103.841 18.6254 103.89C19.5028 104.158 20.3171 103.682 21.0161 103.437C23.6375 102.521 26.374 101.372 28.8764 100.114C31.903 98.6724 35.0523 98.146 38.1383 96.8753C38.4878 96.7531 38.7221 96.8628 38.7816 97.0336C38.9005 97.3753 39.1942 97.6558 39.4285 97.7655C39.4879 97.9363 39.6627 97.8752 39.5474 98.1072C38.9115 99.096 39.7927 99.9376 40.2053 100.56C41.5623 102.768 42.8597 104.805 44.332 106.782C45.1573 108.026 46.3879 108.745 47.7338 109.233C49.7824 110.049 51.9463 110.634 54.1102 111.219C54.7534 111.377 55.1029 111.255 55.4487 110.559C56.1962 108.765 57.3526 107.019 58.3343 105.335C58.6801 104.639 58.8512 104.004 59.1971 103.308C59.714 101.978 60.3498 100.989 61.0415 99.5974C61.3873 98.9016 61.9079 98.1447 61.6105 97.2906C61.551 97.1198 61.7258 97.0587 61.551 97.1198C60.7889 96.6198 60.9005 95.8143 61.0121 95.0088C61.3058 95.2894 61.54 95.3991 61.659 95.7407C63.0159 97.9489 65.1203 98.3628 67.5705 98.0809C68.5038 97.9462 69.6713 97.9212 70.6045 97.7865C74.0475 97.5407 77.4309 97.124 80.8144 96.7074C81.7477 96.5727 82.7367 96.0352 83.6105 95.7297C83.7852 95.6686 84.0753 95.3756 84.0158 95.2047C83.9563 95.0339 83.8968 94.8631 84.1311 94.9728C85.1238 95.0089 85.2354 94.2034 85.6407 93.6784C87.3177 91.1758 88.4147 89.2593 88.4558 86.5622C91.3892 88.794 94.78 89.5246 98.5056 87.8386C102.291 86.3234 104.258 83.5278 105.11 79.7808C105.875 80.8543 106.292 82.0501 106.823 83.0139C107.002 83.5264 107.18 84.0389 107.708 84.4291C108.296 84.9902 109.114 85.0874 110.047 84.9527C113.601 83.9014 117.275 83.1917 120.77 81.9696C121.469 81.7252 121.934 81.371 122.458 81.1877C123.272 80.7113 124.44 80.6863 124.845 80.1614C125.54 79.3434 126.585 78.4032 126.169 77.2074C126.109 77.0366 126.05 76.8658 125.931 76.5241C126.991 77.8782 127.875 79.2934 129.05 80.4155C129.991 81.428 131.396 82.0863 132.512 83.0376C132.746 83.1473 132.98 83.257 133.274 83.5376C134.158 84.9528 136.144 85.025 138.01 84.7556C139.353 84.6695 140.397 83.7293 141.268 82.8502C141.673 82.3252 141.669 81.7516 141.666 81.178C141.186 79.2379 140.822 77.0658 140.342 75.1256C139.982 73.5271 139.447 71.9897 139.261 70.3301C139.198 69.5857 139.194 69.0121 139.131 68.2677C139.12 66.547 139.109 64.8263 139.388 62.8125C140.213 64.0569 141.038 65.3013 141.979 66.3137C143.86 68.3386 146.087 69.6677 148.894 70.4107C149.537 70.569 149.716 71.0815 150.359 71.2398C152.229 71.544 154.155 71.4454 156.081 71.3468C158.531 71.0649 161.101 71.1246 163.607 70.4399C165.005 69.9511 166.466 70.2066 167.804 69.5469C168.444 69.1317 169.143 68.8872 169.901 68.8136C170.485 68.8011 170.712 67.7637 170.708 67.1901C170.407 65.7625 169.177 65.043 168.586 63.9084C166.991 61.0169 164.407 58.6629 163.277 55.4172C163.098 54.9048 162.63 54.6854 162.277 54.234C161.924 53.7826 161.805 53.441 162.619 52.9646C163.493 52.6591 164.426 52.5244 165.121 51.7064C165.586 51.3522 166.17 51.3397 166.694 51.1564C167.917 50.7287 169.085 50.7037 170.133 50.337C172.87 49.1885 175.547 47.8692 178.462 47.2331C180.269 46.7929 181.254 45.6818 182.415 44.5097C182.589 44.4486 182.705 44.2166 182.82 43.9847C183.225 43.4597 183.221 42.8862 182.463 42.9598C181.002 42.7042 179.541 42.4487 178.024 42.5959C177.44 42.6084 177.269 43.2431 176.745 43.4264C173.484 44.7582 170.279 45.6873 167.077 47.19C166.029 47.5566 164.746 47.8136 163.697 48.1802C162.649 48.5469 161.716 48.6816 160.727 49.219C159.448 50.0495 158.804 49.8912 158.098 48.9885C155.745 46.1706 153.042 43.4749 150.979 40.364C150.566 39.7418 150.038 39.3516 149.51 38.9613C148.041 37.5586 146.748 36.0948 145.569 34.3991C145.216 33.9477 144.688 33.5575 144.22 33.338C143.692 32.9478 143.576 33.1797 143.346 33.6436C142.141 36.9392 140.293 40.0765 139.731 43.5304C139.675 43.9332 139.62 44.3359 138.857 43.8359C137.333 42.836 135.753 42.2388 133.942 42.1055C133.358 42.118 133.704 41.4222 133.82 41.1903C134.165 40.4945 134.336 39.8598 134.273 39.1154C134.385 38.3099 134.088 37.4558 133.79 36.6017C133.671 36.26 133.612 36.0892 133.028 36.1017C132.444 36.1142 131.801 35.9559 131.277 36.1392C130.752 36.3225 130.403 36.4447 130.641 37.128C130.938 37.9821 131.061 38.8973 131.184 39.8126C131.302 40.1542 131.247 40.557 131.191 40.9597C131.198 42.1069 130.678 42.8638 129.28 43.3526C126.015 44.1109 123.635 46.2844 121.609 48.9092C121.088 49.6661 120.508 50.2521 120.222 51.1188C119.991 51.5826 119.991 51.5826 119.523 51.3632C117.471 49.973 115.132 49.4494 112.734 48.755C112.325 48.7064 111.801 48.8897 111.392 48.8411C110.633 48.9147 109.64 48.8786 108.941 49.123C107.484 49.441 106.32 50.0396 104.863 50.3576C103.23 50.7368 101.717 51.4576 100.319 51.9464C98.6866 52.3256 98.285 53.4241 97.7681 54.7546C97.426 56.0239 97.2586 57.2322 97.5001 58.489C97.6191 58.8307 97.7381 59.1723 97.857 59.514C97.8607 60.0876 97.7491 60.8931 97.987 61.5764ZM146.074 40.3543C145.959 40.5862 146.019 40.757 145.903 40.9889C145.859 43.1124 145.58 45.1262 145.71 47.1885C145.665 49.312 145.735 51.2036 146.04 53.2048C146.159 53.5465 146.572 54.1687 146.107 54.5228C145.642 54.8769 146.051 54.9256 146.17 55.2672C146.229 55.438 146.404 55.3769 146.523 55.7186C146.705 56.8046 147.412 57.7073 148.118 58.61C148.583 58.2559 148.464 57.9143 147.995 57.6948C147.761 57.5851 147.702 57.4143 147.642 57.2435C146.638 55.4866 146.568 53.5951 146.323 51.7646C145.958 49.5926 146.119 47.2372 146.163 45.1137C146.208 42.9902 146.253 40.8667 147.175 39.0113C147.409 39.121 147.469 39.2918 147.353 39.5238C147.067 40.3904 146.781 41.257 146.729 42.2333C146.617 43.0388 146.914 43.8929 146.803 44.6984C146.702 47.2247 147.36 49.6773 147.609 52.0813C147.914 54.0826 148.858 55.6686 149.802 57.2546C150.215 57.8768 150.568 58.3281 151.156 58.8892C152.565 60.1211 154.32 60.6572 156.075 61.1932C158.707 61.9974 161.51 62.1668 164.314 62.3363C165.132 62.4335 165.95 62.5307 166.481 63.4945C165.838 63.3362 165.726 64.1417 165.143 64.1542C163.975 64.1792 162.867 64.375 161.874 64.3389C160.064 64.2056 158.134 63.7306 156.264 63.4264C154.394 63.1223 152.579 62.4154 151.055 61.4154C150.233 60.7446 149.471 60.2447 148.65 59.5739C148.713 60.3183 149.006 60.5988 149.36 61.0502C150.884 62.0501 152.293 63.282 154.048 63.8181C155.334 64.1347 156.796 64.3903 158.082 64.7069C160.889 65.4499 163.748 65.2166 166.608 64.9833C167.191 64.9708 167.366 64.9097 167.37 65.4833C167.08 65.7763 166.845 65.6666 166.496 65.7888C161.365 66.8165 156.171 67.0998 151.14 65.6013C148.742 64.9069 147.099 63.5653 145.861 61.6987C144.623 59.8322 144.024 57.5504 143.66 55.3783C143.359 53.9506 143.408 52.4007 143.69 50.9605C143.854 49.1787 144.427 47.4455 144.765 45.6025C145.107 44.3332 145.215 42.9541 145.732 41.6236C145.784 40.6473 145.9 40.4154 146.074 40.3543C146.015 40.1834 145.955 40.0126 146.13 39.9515C146.242 39.146 146.413 38.5113 146.524 37.7058C147.052 38.0961 147.171 38.4377 146.707 38.7919C146.417 39.0849 146.361 39.4876 146.13 39.9515C146.19 40.1223 146.015 40.1834 146.074 40.3543ZM115.199 50.7674C115.199 50.7674 115.139 50.5966 115.199 50.7674C115.139 50.5966 115.139 50.5966 115.199 50.7674C117.009 50.9007 118.24 51.6201 118.66 53.3894C118.839 53.9019 118.608 54.3658 118.552 54.7685C118.56 55.9157 117.983 57.0753 117.816 58.2836C117.396 56.5142 116.392 54.7574 115.972 52.9881C115.849 52.0728 115.611 51.3896 115.199 50.7674ZM58.6698 93.9117C59.4877 94.0089 59.6662 94.5214 60.1941 94.9116C60.722 95.3019 60.0267 96.1199 60.6141 96.6809C59.0935 96.2546 58.9745 95.9129 58.9077 94.595C58.614 94.3144 58.7292 94.0825 58.6698 93.9117C58.0302 94.3269 58.4429 94.9491 58.2718 95.5838C57.6286 95.4255 57.2159 94.8033 56.8628 94.3519C56.5096 93.9005 55.7511 93.9741 55.5726 93.4617C54.9816 92.327 53.9815 91.1438 53.6804 89.7161C53.502 89.2036 53.4983 88.63 53.5541 88.2273C53.7178 86.4454 53.7663 84.8956 54.1642 83.2234C54.6217 81.7221 55.0196 80.05 55.2428 78.439C56.4734 79.1584 56.9456 79.9514 56.4287 81.2819C56.3134 81.5138 56.2576 81.9166 56.2018 82.3193C56.0307 82.954 56.0344 83.5276 54.9822 83.3207C54.748 83.2109 54.5732 83.272 54.6327 83.4429C54.5174 83.6748 54.6922 83.6137 54.9264 83.7234C55.9191 83.7595 55.8633 84.1623 55.7517 84.9678C55.6364 85.1997 55.6959 85.3705 55.7554 85.5414C55.9338 86.0538 55.6438 86.3469 55.1195 86.5302C54.77 86.6524 54.5358 86.5427 54.3052 87.0065C54.0226 88.4467 53.9146 89.8258 54.9147 91.0091C55.2084 91.2896 55.2679 91.4604 55.5579 91.1674C56.1975 90.7521 56.4912 91.0327 56.6696 91.5451C56.7291 91.716 57.0228 91.9965 57.0823 92.1673C57.4949 92.7895 58.3724 93.0575 58.6698 93.9117ZM54.5492 106.85C54.7798 106.386 55.1851 105.861 55.3562 105.226C55.9883 103.664 56.68 102.272 57.6654 101.161C58.2454 100.575 58.5318 99.7085 58.8776 99.0127C58.9929 98.7808 59.1082 98.5489 58.8739 98.4392C58.6397 98.3294 58.5244 98.5614 58.3497 98.6225C56.8959 99.5141 55.97 100.796 55.0441 102.078C53.4786 103.775 52.3817 105.691 50.8162 107.389C50.5262 107.682 50.5857 107.852 51.0541 108.072C51.9316 108.34 52.6937 108.84 53.6865 108.876C53.4559 109.34 53.3407 109.572 53.2849 109.975C53.1696 110.206 53.0543 110.438 52.8201 110.329C51.9426 110.061 51.0652 109.793 50.1877 109.525C50.2435 109.122 50.593 109 50.4741 108.658C50.2993 108.719 50.1246 108.78 49.9498 108.841C49.7787 109.476 49.3103 109.256 48.9013 109.208C47.9644 108.769 47.4922 107.976 46.7301 107.476C46.4958 107.366 46.7859 107.073 46.9606 107.012C47.3659 106.487 47.8307 106.133 48.2955 105.779C48.4702 105.718 48.4108 105.547 48.3513 105.376C48.2918 105.205 47.9423 105.328 48.0018 105.498C47.537 105.853 46.9569 106.439 46.4922 106.793C46.2021 107.086 46.0274 107.147 45.7337 106.866C44.4436 105.976 43.5588 104.561 42.7334 103.317C42.6145 102.975 42.4955 102.633 43.254 102.56C43.1945 102.389 43.2503 101.986 42.7855 102.34C42.436 102.462 42.2018 102.353 42.0829 102.011C41.607 100.645 41.1312 99.2779 40.4807 97.9725C40.3022 97.46 40.477 97.3989 41.0012 97.2156C41.5255 97.0322 42.0498 96.8489 42.574 96.6656C42.7488 96.6045 42.9235 96.5434 42.8046 96.2017C42.7451 96.0309 42.5703 96.092 42.3956 96.1531C41.8713 96.3365 41.1128 96.4101 40.6481 96.7642C40.2985 96.8864 40.2985 96.8864 40.0048 96.6059C38.8858 95.081 38.8153 93.1894 37.8115 91.4326C37.6926 91.0909 37.8673 91.0298 38.1016 91.1395C39.0348 91.0048 40.0833 90.6382 41.0166 90.5035C41.1914 90.4424 41.4256 90.5521 41.4814 90.1493C41.3624 89.8077 41.2471 90.0396 41.0129 89.9299C40.4886 90.1132 39.9049 90.1257 39.3806 90.3091C37.7484 90.6882 37.7484 90.6882 37.6221 89.1994C37.5626 89.0286 37.6779 88.7966 37.6184 88.6258C37.5552 87.8814 37.9047 87.7592 38.4885 87.7467C39.8307 87.6606 40.9982 87.6356 42.3404 87.5495C42.5152 87.4884 42.7494 87.5981 42.6899 87.4273C42.8052 87.1954 42.571 87.0857 42.3962 87.1468C42.2215 87.2079 41.9872 87.0981 41.8125 87.1593C40.4703 87.2454 39.128 87.3315 38.02 87.5273C37.8453 87.5884 37.4958 87.7106 37.5516 87.3078C37.5479 86.7343 37.31 86.051 37.4811 85.4163C37.7674 84.5497 37.879 83.7442 37.9311 82.7678C37.9869 82.3651 38.1617 82.304 38.5707 82.3526C39.5634 82.3887 40.5561 82.4248 41.7236 82.3998C42.8911 82.3748 44.118 82.5207 45.345 82.6665C45.5792 82.7762 46.0477 82.9956 46.163 82.7637C46.2188 82.361 45.635 82.3735 45.4008 82.2637C45.1666 82.154 44.9918 82.2151 44.7576 82.1054C43.1216 81.911 41.5452 81.8874 39.9092 81.6929C39.3255 81.7054 38.7975 81.3152 38.158 81.7304C38.3254 80.5222 38.3181 79.375 38.4855 78.1668C38.5413 77.764 38.5971 77.3613 38.6529 76.9585C38.7087 76.5557 38.8239 76.3238 39.2924 76.5432C39.9951 76.8724 40.6383 77.0307 41.1068 77.2502C41.341 77.3599 41.5752 77.4696 41.6905 77.2377C41.8058 77.0057 41.5716 76.896 41.3373 76.7863C40.6941 76.628 40.1662 76.2377 39.3482 76.1405C38.9392 76.0919 38.6455 75.8114 38.9355 75.5183C39.3408 74.9934 39.3372 74.4198 39.1587 73.9073C38.8614 73.0532 39.5009 72.6379 39.672 72.0033C40.0178 71.3075 41.0663 70.9408 41.8843 71.0381C43.9292 71.2811 45.4536 72.281 47.0932 73.0491C48.4985 73.7074 50.2534 74.2434 51.4283 75.3656C52.3094 76.2072 53.3058 76.8169 54.1869 77.6585L54.2464 77.8293C54.0717 77.8904 54.0717 77.8904 54.0122 77.7196C53.4284 77.7321 53.0753 77.2808 52.2573 77.1835C52.4952 77.8668 53.1979 78.196 53.7816 78.1835C54.3653 78.171 54.4843 78.5126 54.4285 78.9154C54.2611 80.1236 54.2611 80.1236 52.9747 79.807C52.7404 79.6973 52.5062 79.5875 52.3315 79.6487C51.045 79.332 49.6991 78.8445 48.1821 78.9917C48.0074 79.0529 47.7732 78.9431 47.8326 79.114C47.7174 79.3459 48.1263 79.3945 48.3011 79.3334C48.7101 79.382 49.2938 79.3695 49.5281 79.4792C50.7587 80.1986 52.3351 80.2222 53.4468 80.6C54.09 80.7583 53.9748 80.9902 53.9784 81.5638C53.64 83.4068 52.7177 85.2622 52.6135 87.2148C52.5577 87.6176 52.3829 87.6787 52.2082 87.7398C51.4497 87.8134 50.7507 88.0578 49.8769 88.3634C49.7022 88.4245 49.4085 88.1439 49.3527 88.5467C49.4716 88.8883 49.8211 88.7661 49.9959 88.705C50.6949 88.4606 51.4534 88.387 51.9776 88.2037C52.6767 87.9592 52.5614 88.1912 52.7398 88.7036C52.803 89.448 52.9256 90.3633 53.1635 91.0465C53.3419 91.559 53.6356 91.8396 52.8213 92.3159C53.4051 92.3034 53.6393 92.4131 53.9925 92.8645C54.5241 93.8283 55.2305 94.731 56.0521 95.4018C56.6396 95.9629 56.409 96.4268 55.9442 96.7809C55.8289 97.0128 55.4794 97.1351 55.3047 97.1962C55.1894 97.4281 54.8399 97.5503 54.9588 97.892C55.7731 97.4156 56.4127 97.0004 56.8738 96.0726C57.4017 96.4629 57.6396 97.1462 58.6324 97.1823C59.2161 97.1698 59.744 97.56 60.3872 97.7184C61.0305 97.8767 61.1494 98.2183 60.9783 98.853C60.9225 99.2558 60.6325 99.5488 60.5767 99.9516C60.1156 100.879 59.4797 101.868 59.0781 102.967C58.2785 105.737 56.1925 108.191 54.9839 110.913C54.7534 111.377 54.4597 111.097 54.0507 111.048C53.6417 110.999 53.757 110.768 53.8723 110.536C54.3334 109.608 54.7945 108.68 55.0808 107.814C55.1961 107.582 55.3114 107.35 55.0771 107.24C54.8392 106.557 54.724 106.789 54.5492 106.85C54.5492 106.85 54.6087 107.021 54.5492 106.85C54.3745 106.911 54.5492 106.85 54.5492 106.85ZM58.105 87.7857C57.9861 87.444 57.8077 86.9315 57.8635 86.5288C58.202 84.6859 57.8972 82.6846 58.2357 80.8417C58.4031 79.6334 58.221 78.5474 57.9794 77.2905C57.7936 75.6309 58.4258 74.0685 59.1175 72.6769C59.2327 72.445 59.4075 72.3839 59.5822 72.3228C60.9766 71.2603 62.6052 70.3076 63.9995 69.2452C65.8587 67.8286 68.1305 67.0342 70.3428 66.069C70.8671 65.8857 71.5661 65.6413 72.1498 65.6288C73.6073 65.3108 74.6632 66.0913 76.0091 66.5787C77.4145 67.237 78.7046 68.1273 79.5894 69.5424C79.9426 69.9938 79.5967 70.6896 80.0652 70.909C81.2364 71.4576 81.5932 72.4825 82.2401 73.2144C83.1212 74.0561 83.4781 75.081 83.4855 76.2282C83.4333 77.2045 83.7902 78.2294 84.4371 78.9613C85.4966 80.3154 85.6824 81.975 86.2177 83.5124C87.1657 85.672 87.0056 88.0274 87.0203 90.3217C86.9645 90.7245 87.143 91.2369 86.8529 91.53C85.7523 92.8729 84.5922 94.0451 83.4321 95.2172C82.6772 95.8644 81.8629 96.3408 80.9297 96.4755C79.4722 96.7935 78.1857 96.4769 76.7282 96.7949C73.9285 97.199 71.0098 97.2615 68.2696 97.8364C65.704 98.3503 63.8302 97.4726 62.358 95.4963C60.2984 92.9589 59.3467 90.2258 58.105 87.7857ZM122.611 68.6788C122.024 68.1177 122.135 67.3122 121.548 66.7511C120.782 65.6776 120.132 64.3721 119.541 63.2374C118.652 61.2487 119.281 59.1127 119.325 56.9892C119.322 56.4156 119.493 55.781 119.664 55.1463C120.872 52.4242 122.256 49.6411 124.342 47.1871C125.152 46.1371 126.312 44.965 127.893 45.5622L128.067 45.5011C129.469 45.5858 130.399 44.8775 131.562 44.279C132.901 43.6193 134.299 43.1304 135.82 43.5568C136.229 43.6054 136.463 43.7151 136.931 43.9346C137.809 44.2026 138.753 45.7886 138.407 46.4844C137.831 47.644 137.663 48.8523 137.496 50.0605C137.05 53.2826 136.838 56.6143 137.968 59.8599C138.146 60.3724 138.15 60.946 138.269 61.2876C138.276 62.4348 138.049 63.4722 138.231 64.5582C138.476 66.3887 137.963 68.2927 137.974 70.0135C136.918 69.2329 135.915 67.4761 135.673 66.2192C135.554 65.8776 135.785 65.4137 135.201 65.4262C134.617 65.4387 134.97 65.8901 134.915 66.2928C135.216 67.7205 135.926 69.1968 136.461 70.7342C137.175 72.7841 139.227 74.1743 139.067 76.5297C139.126 76.7005 139.126 76.7005 139.186 76.8714C139.721 78.4088 140.665 79.9948 140.676 81.7155C140.74 82.4599 140.509 82.9238 139.635 83.2293C137.654 83.7306 135.609 83.4876 133.62 82.8418C130.05 81.5988 127.931 78.8906 126.162 76.0603C125.868 75.7797 125.864 75.2061 125.745 74.8645C125.559 73.2049 124.79 71.5578 124.255 70.0204C123.485 68.3732 123.24 66.5428 123.344 64.5901C123.392 63.0402 123.091 61.6125 122.556 60.0751C122.497 59.9043 122.437 59.7335 122.203 59.6238C122.028 59.6849 121.913 59.9168 121.913 59.9168C122.21 60.7709 121.749 61.6987 122.047 62.5528C122.407 64.1513 122.184 65.7623 122.544 67.3608C122.548 67.9344 122.727 68.4468 122.611 68.6788ZM89.4504 59.5792C90.8521 59.6639 92.1349 59.407 93.5961 59.6626C95.2915 60.0278 96.3511 61.3819 97.6412 62.2721C98.4628 62.9429 98.935 63.7359 99.1171 64.822C99.2992 65.908 99.5966 66.7621 99.9534 67.7871C100.426 68.5801 101.072 69.312 101.195 70.2272C101.615 71.9965 102.5 73.4117 103.095 75.12C103.333 75.8032 103.221 76.6088 103.634 77.2309C104.165 78.1948 104.288 79.11 103.886 80.2085C103.139 82.0029 102.86 84.0166 100.766 85.3235C99.6621 86.0929 98.6173 87.0331 97.2787 87.6928C94.5421 88.8413 90.627 88.2941 88.5711 86.3303C88.0431 85.9401 87.6305 85.3179 87.6863 84.9151C87.7421 84.5124 87.7979 84.1096 87.5636 83.9999C86.7978 82.9263 86.3814 81.7306 85.6156 80.657C84.6155 79.4738 84.255 77.8753 84.1882 76.5573C84.0618 75.0685 83.4113 73.763 83.285 72.2742C83.1623 71.359 82.9802 70.273 82.7981 69.1869C82.5602 68.5036 83.1997 68.0884 83.1366 67.344C83.2408 65.3913 84.3973 63.6456 85.8474 62.1804C86.3122 61.8263 86.8365 61.643 87.2418 61.118C88.1714 60.4097 88.8109 59.9945 89.4504 59.5792ZM145 36.7059C145.822 37.3767 145.885 38.1211 145.599 38.9877C144.509 42.0514 144.063 45.2734 143.382 48.3857C142.984 50.0578 142.645 51.9007 142.891 53.7312C143.195 55.7324 143.909 57.7823 144.563 59.6614C145.396 62.0529 147.158 63.7361 149.616 64.6013C152.836 65.9665 156.517 66.404 160.134 66.0971C162.469 66.0471 164.86 65.5944 167.251 65.1416C167.95 64.8972 167.894 65.3 168.072 65.8124C168.251 66.3249 167.842 66.2763 167.492 66.3985C166.968 66.5818 166.21 66.6554 165.626 66.6679C165.042 66.6804 164.458 66.6929 163.875 66.7054C161.369 67.3901 158.859 67.5012 156.409 67.7831C154.542 68.0525 152.616 68.1511 150.977 67.3831C148.285 66.4082 145.883 65.1402 144.467 62.7612C143.522 61.1751 142.463 59.8211 141.983 57.8809C141.623 56.2824 141.028 54.5742 141.251 52.9632C141.355 51.0105 141.46 49.0579 141.913 46.983C142.311 45.3109 142.066 43.4804 142.873 41.8569C143.914 40.3431 144.253 38.5002 145 36.7059ZM143.528 34.7296C144.409 35.5712 144.532 36.4864 144.071 37.4142C143.955 37.6461 144.015 37.8169 143.84 37.878C143.04 40.6487 141.538 43.0902 141.382 46.0192C141.17 49.3509 140.374 52.6951 140.92 55.9532C141.708 60.4682 143.66 64.3847 147.82 66.7623C148.816 67.372 150.047 68.0914 151.274 68.2372C154.137 68.5775 157.171 68.2831 160.205 67.9887C161.897 67.7803 163.469 67.2304 165.221 67.1929C166.039 67.2901 166.797 67.2165 167.671 66.911C168.37 66.6666 168.548 67.179 168.667 67.5207C168.846 68.0331 168.262 68.0456 168.087 68.1067C167.912 68.1678 167.738 68.229 167.563 68.2901C165.871 68.4984 164.12 68.5359 162.607 69.2566C162.432 69.3178 162.082 69.44 161.908 69.5011C158.933 69.9663 155.899 70.2607 152.917 69.5788C152.04 69.3108 151.047 69.2747 150.229 69.1774C148.359 68.8733 147.125 67.5803 145.485 66.8123C144.254 66.0929 143.024 65.3735 142.433 64.2388C141.901 63.275 141.544 62.2501 140.838 61.3473C140.778 61.1765 140.778 61.1765 140.719 61.0057C140.184 59.4683 140.057 57.9795 140.106 56.4296C140.043 55.6852 140.329 54.8186 140.091 54.1353C139.786 52.134 140.125 50.2911 140.229 48.3384C140.508 46.3247 140.728 44.1401 141.241 42.2361C141.866 39.5265 142.784 37.0975 143.528 34.7296ZM37.5473 95.7406C36.8482 95.9851 35.9745 96.2906 35.3349 96.7058C34.6954 97.1211 33.9964 97.3655 33.4721 97.5488C31.2561 97.9405 29.278 99.0154 27.181 99.7487C25.0245 100.311 23.1653 101.728 20.834 102.351C18.2127 103.268 15.6472 103.782 13.0854 104.869C12.0369 105.236 10.9289 105.432 9.88034 105.798C9.00657 106.104 9.11817 105.298 8.76498 104.847C8.58655 104.334 9.17029 104.322 9.34504 104.261C10.9773 103.882 12.7248 103.271 14.2976 102.721C14.6471 102.598 14.8219 102.537 14.7029 102.196C14.584 101.854 14.2345 101.976 14.0597 102.037C12.2564 103.051 10.3899 103.321 8.4676 103.993C8.28916 103.48 8.81343 103.297 9.16294 103.175C9.92143 103.101 10.7952 102.796 11.4942 102.551C14.0561 101.464 16.6215 100.95 19.1834 99.8625C21.7452 98.7751 24.426 98.0293 27.0473 97.1127C27.2221 97.0516 27.3373 96.8197 27.631 97.1002C27.2815 97.2225 26.932 97.3447 27.051 97.6863C27.1105 97.8571 27.3447 97.9669 27.6347 97.6738C28.9138 96.8433 30.4308 96.6961 31.7694 96.0364C33.1079 95.3768 34.2717 94.7782 35.6697 94.2893C35.8445 94.2282 36.4877 94.3866 36.075 93.7644C36.075 93.7644 37.4136 93.1047 37.4731 93.2755C37.7073 93.3852 37.6588 94.9351 37.4841 94.9962C36.5545 95.7045 37.4878 95.5698 37.5473 95.7406ZM165.009 61.5183C164.191 61.421 163.373 61.3238 162.555 61.2266C159.343 61.0085 156.246 60.5586 153.375 59.0712C152.673 58.742 151.91 58.242 151.264 57.5101C149.732 55.363 148.375 53.1548 148.182 50.3481C148.055 48.8593 147.52 47.3219 147.569 45.772C147.613 43.6485 147.074 41.5375 148.052 39.2793C148.58 39.6696 148.818 40.3529 148.881 41.0973C149.071 43.3305 149.32 45.7345 149.16 48.0899C149.056 50.0425 149.71 51.9216 150.714 53.6784C152.602 56.8505 155.707 58.4476 159.506 59.2267C160.559 59.4337 161.667 59.2378 162.834 59.2128C163.243 59.2614 163.593 59.1392 163.712 59.4809C164.184 60.2739 164.537 60.7253 165.009 61.5183ZM105.018 65.4414C104.545 64.6484 105.007 63.7207 105.352 63.0249C105.873 62.268 106.334 61.3403 107.089 60.6931C108.193 59.9237 109.011 60.0209 109.428 61.2167C109.665 61.9 109.963 62.7541 110.491 63.1444C111.138 63.8763 110.907 64.3401 110.561 65.0359C110.215 65.7317 110.044 66.3664 109.873 67.0011C109.933 67.1719 109.817 67.4038 109.992 67.3427C110.226 67.4524 110.342 67.2205 110.282 67.0497C110.275 65.9025 110.803 66.2928 111.506 66.6219C111.974 66.8413 112.442 67.0608 112.967 66.8775C113.376 66.9261 113.9 66.7427 114.249 66.6205C114.774 66.4372 115.067 66.7178 115.071 67.2913C114.96 68.0968 115.023 68.8412 114.911 69.6467C114.688 71.2577 114.688 71.2577 113.052 71.0633C112.818 70.9536 112.353 71.3077 112.234 70.9661C112.052 69.88 110.881 69.3315 110.349 68.3676C109.758 67.233 108.821 66.7941 107.479 66.8802C106.605 67.1858 105.374 66.4663 105.018 65.4414ZM111.683 76.1408C111.274 76.0921 110.981 75.8116 110.746 75.7019C110.044 75.3727 109.631 74.7506 108.757 75.0561C107.709 75.4227 106.426 75.6797 105.496 76.3879C105.206 76.681 105.087 76.3393 105.028 76.1685C104.147 75.3269 104.08 74.0089 103.548 73.0451L103.489 72.8743C103.66 72.2396 105.932 71.4452 106.226 71.7257C106.753 72.116 107.103 71.9938 107.687 71.9813C108.445 71.9077 109.319 71.6021 110.137 71.6994C110.546 71.748 111.014 71.9674 111.07 71.5647C111.126 71.1619 110.427 71.4063 110.193 71.2966C109.315 71.0286 108.386 71.7369 107.568 71.6396C106.809 71.7132 106.341 71.4938 106.337 70.9202C106.155 69.8342 106.148 68.687 106.2 67.7107C106.315 67.4788 106.315 67.4788 106.49 67.4177C107.074 67.4052 107.892 67.5024 108.475 67.4899C109.234 67.4163 109.527 67.6968 109.94 68.319C110.353 68.9412 110.825 69.7342 111.587 70.2342C111.94 70.6855 112.059 71.0272 112.063 71.6008C111.836 72.6382 111.434 73.7367 111.676 74.9936C111.561 75.2255 111.68 75.5672 111.683 76.1408ZM120.818 80.4197C119.48 81.0794 118.257 81.5071 116.858 81.996C116.509 82.1182 116.159 82.2404 116.215 81.8376C116.386 81.203 115.858 80.8127 116.379 80.0558C116.494 79.8239 115.903 78.6892 115.494 78.6406C114.561 78.7753 114.557 78.2017 114.379 77.6893C114.26 77.3476 114.081 76.8352 113.788 76.5546C113.494 76.2741 113.669 76.213 113.784 75.9811C114.535 74.7603 115.758 74.3325 116.922 73.734C117.272 73.6118 117.796 73.4284 118.034 74.1117C118.272 74.795 119.268 75.4047 120.202 75.27C120.376 75.2089 120.611 75.3186 120.845 75.4283C122.6 75.9644 123.075 77.331 123.726 78.6365C123.845 78.9781 123.73 79.21 123.38 79.3323C122.157 79.76 121.053 80.5294 119.762 79.6392C119.762 79.6392 119.762 79.6392 119.528 79.5295C118.361 79.5545 117.889 78.7614 117.416 77.9684C117.238 77.456 116.361 77.1879 115.896 77.5421C115.721 77.6032 115.546 77.6643 115.606 77.8351C115.665 78.0059 115.84 77.9448 116.015 77.8837C116.539 77.7004 117.008 77.9198 117.186 78.4323C117.718 79.3961 118.483 80.4697 120 80.3225C120.35 80.2003 120.759 80.2489 120.818 80.4197ZM150.112 41.8167C150.7 42.3778 151.112 42.9999 151.7 43.561C151.759 43.7318 151.819 43.9027 151.819 43.9027C151.647 44.5373 151.711 45.2817 151.714 45.8553C151.907 48.6621 152.45 51.3466 154.506 53.3104C155.153 54.0423 155.975 54.7131 156.912 55.152C158.551 55.92 160.596 56.163 162.351 56.6991C162.76 56.7477 163.466 57.6504 163.41 58.0532C163.295 58.2851 163.12 58.3462 163.061 58.1754C159.674 58.0185 156.461 57.8004 153.818 55.2756C151.996 53.4215 150.465 51.2744 150.331 48.6385C150.26 46.7469 150.19 44.8554 150.119 42.9638C150.06 42.793 150.116 42.3903 150.112 41.8167ZM102.148 54.9476C102.847 54.7032 104.721 55.5809 104.899 56.0934C104.959 56.2642 104.959 56.2642 104.784 56.3253C104.263 57.0822 105.085 57.753 105.319 57.8627C106.431 58.2405 106.438 59.3876 107.201 59.8876C107.435 59.9973 107.319 60.2292 107.145 60.2904C106.156 60.8278 105.579 61.9875 104.943 62.9763C104.653 63.2693 104.479 63.3304 104.185 63.0499C103.716 62.8305 103.189 62.4402 102.954 62.3305C101.902 62.1236 100.965 61.6847 101.017 60.7084C101.069 59.732 100.601 59.5126 99.783 59.4154C99.1992 59.4279 98.965 59.3182 99.3108 58.6224C99.6009 58.3293 99.3072 58.0488 99.0135 57.7683C98.7792 57.6585 98.6603 57.3169 99.0098 57.1947C100.114 56.4253 101.218 55.6559 102.148 54.9476ZM161.764 56.138C155.335 55.1284 152.045 51.8716 152.172 44.354C152.346 44.2929 152.406 44.4637 152.465 44.6346C153.759 46.0984 155.053 47.5622 156.172 49.0871C156.878 49.9898 157.47 51.1244 158.291 51.7952C160.05 52.9049 161.169 54.4298 161.764 56.138ZM159.336 50.855C160.794 50.537 162.013 49.5357 163.705 49.3274C165.337 48.9482 167.029 48.7399 168.542 48.0191C168.892 47.8969 169.475 47.8844 169.531 47.4817C169.702 46.847 170.111 46.8956 170.695 46.8831C171.045 46.7609 171.279 46.8706 171.628 46.7484C173.257 45.7957 175.064 45.3554 176.577 44.6346C177.8 44.2069 179.024 43.7792 180.485 44.0347C178.503 44.536 176.934 45.6596 175.068 45.929C174.543 46.1123 173.96 46.1248 173.554 46.6498C173.379 46.7109 173.264 46.9428 173.324 47.1136C173.383 47.2845 173.558 47.2234 173.673 46.9914C174.138 46.6373 174.837 46.3929 175.421 46.3804C177.228 45.9401 178.741 45.2193 180.254 44.4986C180.779 44.3152 181.303 44.1319 181.831 44.5222C180.901 45.2305 180.087 45.7068 178.979 45.9026C178.046 46.0373 177.347 46.2818 176.592 46.9289C175.313 47.7594 173.74 48.3094 172.227 49.0302C170.539 49.8121 168.795 50.9967 166.69 50.5828C166.281 50.5342 165.932 50.6564 165.582 50.7787C167.33 50.1676 169.077 49.5565 170.706 48.6038C170.881 48.5427 171.29 48.5913 171.171 48.2497C171.052 47.908 170.702 48.0302 170.528 48.0913C170.353 48.1525 170.178 48.2136 170.178 48.2136C168.141 49.1177 166.218 49.7898 164.062 50.3523C163.887 50.4134 163.363 50.5967 163.363 50.5967C163.192 51.2314 162.608 51.2439 162.258 51.3661C161.909 51.4883 161.559 51.6105 161.21 51.7328C160.57 52.148 159.987 52.1605 159.689 51.3064C160.329 50.8911 161.087 50.8175 161.727 50.4023C160.968 50.4759 160.154 50.9522 159.336 50.855ZM108.777 59.9112C110.004 60.057 110.525 59.3001 110.811 58.4335C110.867 58.0308 111.157 57.7378 111.447 57.4447C111.562 57.2128 111.677 56.9809 112.205 57.3711C112.793 57.9322 113.376 57.9197 113.956 57.3336C114.246 57.0406 114.711 56.6864 115.001 56.3934C116.106 55.624 116.34 55.7337 116.407 57.0517C116.47 57.7961 116.592 58.7113 117.005 59.3335C117.358 59.7849 117.711 60.2362 116.659 60.0293C116.425 59.9196 116.31 60.1515 116.02 60.4445C115.44 61.0306 114.685 61.6778 114.339 62.3736C113.703 63.3624 112.77 63.4971 111.837 63.6318C110.844 63.5957 110.781 62.8513 110.428 62.4C110.071 61.375 109.889 60.289 108.777 59.9112ZM119.44 65.7637C119.499 65.9345 119.618 66.2761 119.444 66.3372C119.098 67.033 117.231 67.3024 116.644 66.7414C116.35 66.4608 115.882 66.2414 115.473 66.1928C114.655 66.0956 113.781 66.4011 113.023 66.4747C112.089 66.6094 111.327 66.1094 110.799 65.7192C110.565 65.6095 111.32 64.9623 111.316 64.3887C111.372 63.986 111.487 63.754 112.071 63.7415C113.413 63.6554 114.517 62.886 115.094 61.7264C115.324 61.2625 115.964 60.8473 116.369 60.3223C116.659 60.0293 117.068 60.0779 117.477 60.1265C117.886 60.1751 117.656 60.639 117.715 60.8098C117.897 61.8958 118.02 62.8111 118.377 63.836C118.496 64.1776 118.265 64.6415 118.734 64.8609C119.202 65.0804 119.146 65.4831 119.44 65.7637ZM109.796 54.956C108.576 55.9573 107.115 55.7018 105.833 55.9587C105.658 56.0198 105.483 56.0809 105.189 55.8004C104.951 55.1171 104.308 54.9587 103.665 54.8004C103.197 54.581 102.553 54.4227 103.074 53.6658C103.364 53.3727 103.185 52.8603 102.951 52.7505C102.598 52.2992 102.948 52.177 103.238 51.8839C104.576 51.2243 106.562 51.2965 107.677 52.2478C108.499 52.9186 109.61 53.2964 109.502 54.6754C109.502 54.6754 109.737 54.7852 109.796 54.956ZM119.563 66.6789C119.801 67.3622 120.154 67.8135 120.332 68.326C120.511 68.8385 120.574 69.5829 120.752 70.0953C120.99 70.7786 120.581 70.73 120.172 70.6814C119.529 70.5231 119.179 70.6453 118.774 71.1703C118.659 71.4022 118.544 71.6341 118.428 71.866C118.198 72.3299 117.733 72.6841 117.268 73.0382C116.744 73.2215 116.74 72.6479 116.446 72.3674C116.212 72.2577 115.919 71.9771 115.684 71.8674C115.156 71.4772 115.037 71.1355 115.208 70.5008C115.61 69.4023 115.778 68.1941 115.417 66.5955C116.882 67.4247 118.287 68.083 119.563 66.6789ZM105.859 50.9673C107.432 50.4174 109.064 50.0382 110.521 49.7202C110.871 49.598 111.105 49.7077 111.339 49.8174C112.276 50.2563 112.399 51.1715 113.046 51.9034C113.399 52.3548 113.871 53.1478 112.882 53.6852C112.707 53.7463 112.652 54.1491 112.477 54.2102C112.072 54.7352 112.309 55.4185 111.904 55.9434C111.785 55.6018 111.436 55.724 111.201 55.6143C110.674 55.224 109.796 54.956 109.908 54.1505C109.785 53.2353 109.607 52.7228 108.554 52.5158C108.38 52.577 108.32 52.4061 108.261 52.2353C107.614 51.5034 106.852 51.0034 105.859 50.9673ZM114.914 79.2267C114.39 79.41 113.981 79.3614 113.572 79.3128C112.579 79.2767 111.646 79.4114 111.125 80.1683C110.489 81.1571 110.322 82.3654 109.452 83.2445C109.452 83.2445 109.337 83.4764 109.396 83.6472C109.515 83.9889 109.575 84.1597 109.05 84.343C108.701 84.4652 108.407 84.1847 108.348 84.0139C107.994 83.5625 107.816 83.05 107.403 82.4278C106.991 81.8057 106.578 81.1835 107.567 80.646C107.742 80.5849 107.857 80.353 107.972 80.121C108.552 79.535 108.605 78.5586 109.653 78.192C110.527 77.8865 111.282 77.2393 112.334 77.4462C112.568 77.5559 112.683 77.324 112.858 77.2629C113.263 76.7379 113.557 77.0185 113.676 77.3601C113.914 78.0434 114.152 78.7267 114.914 79.2267ZM124.25 78.4532C124.187 77.7088 123.484 77.3796 123.306 76.8671C122.949 75.8422 121.25 74.9034 120.023 74.7575C119.265 74.8311 118.737 74.4409 118.499 73.7576C118.261 73.0743 118.603 71.8049 119.183 71.2189C119.473 70.9258 121.224 70.8883 121.518 71.1689C122.224 72.0716 123.165 73.084 123.871 73.9868C124.931 75.3409 125.232 76.7685 124.25 78.4532ZM110.158 84.1472C110.039 83.8055 109.92 83.4639 110.27 83.3417C110.85 82.7556 111.136 81.889 111.423 81.0224C111.594 80.3877 112.059 80.0336 112.758 79.7891C113.631 79.4836 114.394 79.9836 115.267 79.678C115.267 79.678 115.502 79.7878 115.561 79.9586C115.505 80.3613 115.799 80.6419 115.918 80.9835C116.215 81.8376 115.754 82.7653 114.88 83.0709C113.308 83.6208 111.672 83.4264 110.158 84.1472ZM105.631 70.0175C105.103 69.6273 104.75 69.1759 104.281 68.9565C103.4 68.1149 102.575 66.8705 100.824 66.908C100.649 66.9691 100.415 66.8594 100.006 66.8107C101.05 65.8705 101.861 64.8206 102.672 63.7707C102.962 63.4776 103.017 63.0749 103.486 63.2943C103.954 63.5138 104.538 63.5013 104.427 64.3068C104.315 65.1123 104.144 65.7469 104.791 66.4788C105.203 67.101 105.85 67.8329 105.564 68.6995C105.623 68.8704 105.568 69.2731 105.631 70.0175ZM111.921 76.824C111.222 77.0685 110.583 77.4837 109.884 77.7281C109.185 77.9726 108.545 78.3878 108.199 79.0836C107.969 79.5475 107.563 80.0724 107.273 80.3655C107.158 80.5974 106.868 80.8904 106.634 80.7807C106.4 80.671 106.106 80.3905 106.221 80.1585C106.102 79.8169 106.567 79.4627 105.749 79.3655C105.165 79.378 105.151 77.0837 105.79 76.6685C106.72 75.9602 107.887 75.9352 108.876 75.3977C109.226 75.2755 109.345 75.6172 109.754 75.6658C110.516 76.1657 110.929 76.7879 111.921 76.824ZM109.625 55.5907C110.265 55.1754 110.443 55.6879 110.911 55.9073C111.848 56.3462 111.908 56.517 111.212 57.335C111.097 57.5669 110.922 57.628 110.807 57.86C110.346 58.7877 110 59.4835 108.658 59.5696C107.9 59.6432 107.431 59.4237 107.078 58.9724C106.725 58.521 106.721 57.9474 106.078 57.7891C105.609 57.5697 105.375 57.46 105.606 56.9961C105.602 56.4225 106.011 56.4711 106.42 56.5198C107.468 56.1531 108.695 56.2989 109.625 55.5907ZM112.148 75.7866C111.907 74.5297 111.665 73.2729 112.241 72.1132C112.357 71.8813 112.412 71.4786 112.821 71.5272C113.989 71.5022 115.097 71.3064 116.037 72.3188C116.684 73.0507 116.863 73.5632 116.164 73.8076C115 74.4062 114.011 74.9436 113.2 75.9935C112.91 76.2866 112.267 76.1283 112.148 75.7866ZM98.7308 59.2084C99.1992 59.4279 99.6082 59.4765 100.077 59.6959C100.311 59.8056 100.72 59.8542 100.664 60.257C100.556 61.6361 101.493 62.0749 102.489 62.6846C102.724 62.7943 102.958 62.9041 102.668 63.1971C102.032 64.1859 101.221 65.2359 100.292 65.9441C99.5187 63.7234 98.9797 61.6125 98.7308 59.2084ZM100.708 67.1399C101.586 67.4079 102.519 67.2732 102.932 67.8954C103.404 68.6884 104.4 69.2981 104.988 69.8592C105.281 70.1397 105.515 70.2494 105.634 70.5911C105.928 70.8716 105.872 71.2744 105.289 71.2869C104.764 71.4702 104.006 71.5438 103.601 72.0688C103.195 72.5937 102.902 72.3132 102.783 71.9715C102.485 71.1174 102.128 70.0925 101.831 69.2384C101.418 68.6162 100.831 68.0551 100.708 67.1399ZM112.804 50.6465C114.329 51.6465 115.273 53.2325 115.808 54.7699C115.868 54.9407 116.161 55.2213 115.637 55.4046C114.763 55.7101 114.183 56.2962 113.603 56.8823C113.313 57.1753 112.964 57.2975 112.495 57.0781C112.027 56.8586 111.908 56.517 112.138 56.0531C112.254 55.8212 112.309 55.4185 112.425 55.1865C112.655 54.7227 112.592 53.9783 113.291 53.7338C113.931 53.3186 113.812 52.977 113.633 52.4645C113.57 51.7201 113.217 51.2687 112.804 50.6465ZM101.315 52.5561C101.724 52.6047 102.13 52.0797 102.423 52.3603C102.717 52.6408 102.836 52.9825 102.78 53.3852C102.724 53.788 102.609 54.0199 102.319 54.3129C101.215 55.0823 100.11 55.8517 99.0061 56.6211C98.8313 56.6822 98.7161 56.9142 98.5971 56.5725C98.4187 56.06 98.0655 55.6087 98.1213 55.2059C98.1176 54.6323 98.404 53.7657 99.2777 53.4602C99.802 53.2769 100.501 53.0325 101.315 52.5561ZM131.377 42.6193C131.604 41.5819 131.83 40.5445 131.474 39.5195C131.236 38.8362 131.232 38.2627 130.994 37.5794C130.935 37.4086 130.875 37.2377 131.05 37.1766C131.399 37.0544 132.162 37.5544 132.455 37.8349C132.987 38.7987 132.645 40.0681 132.652 41.2153C132.83 41.7277 132.719 42.5332 131.377 42.6193ZM56.4698 78.5848C57.113 78.7432 57.3472 78.8529 57.4662 79.1945C57.7709 81.1958 57.1424 83.3318 57.0976 85.4553C57.0418 85.858 56.6328 85.8094 56.4581 85.8705C56.1086 85.9927 56.1644 85.59 56.2797 85.358C56.3913 84.5525 56.5029 83.747 56.6145 82.9415C56.7224 81.5624 57.7635 80.0487 56.4698 78.5848ZM60.3652 94.2769C59.0156 93.2159 58.075 92.2034 57.3091 91.1299C57.2497 90.9591 56.7217 90.5688 57.246 90.3855C57.7703 90.2022 58.1756 89.6772 58.6477 90.4702C59.064 91.666 59.6551 92.8006 60.3652 94.2769ZM54.6026 87.8606L54.5432 87.6898C55.1827 87.2746 56.1159 87.1399 56.7555 86.7246C56.9302 86.6635 56.9302 86.6635 56.9897 86.8343C57.1681 87.3468 57.406 88.0301 57.3502 88.4328C57.2944 88.8356 56.6512 88.6773 56.3017 88.7995C55.9522 88.9217 55.6027 89.0439 55.019 89.0564C54.8442 89.1175 54.3794 89.4717 54.3757 88.8981C54.2568 88.5564 54.6063 88.4342 54.8963 88.1412C55.4206 87.9579 55.9449 87.7745 56.4691 87.5912C56.0007 87.3718 55.6511 87.494 55.4764 87.5551C55.3611 87.787 55.0116 87.9093 54.6026 87.8606ZM165.292 51.0717C163.72 51.6217 162.266 52.5133 160.574 52.7216C162.203 51.7689 163.835 51.3897 165.292 51.0717ZM123.57 72.5591C121.574 70.7661 121.102 69.9731 121.15 68.4232C122.325 69.5454 122.57 71.3758 123.57 72.5591ZM57.7629 89.055C57.0676 89.873 56.3685 90.1175 55.4353 90.2522C55.2606 90.3133 55.0858 90.3744 55.0263 90.2036C54.9074 89.8619 55.3163 89.9105 55.4911 89.8494C56.0712 89.2633 56.8297 89.1897 57.7629 89.055ZM176.711 47.2706C177.64 46.5623 178.689 46.1957 179.797 45.9998C178.927 46.879 177.7 46.7331 176.711 47.2706ZM98.3702 57.6099C98.6639 57.8905 99.1324 58.1099 99.0766 58.5127C99.0766 58.5127 98.9613 58.7446 98.7271 58.6349C98.2586 58.4154 98.4892 57.9516 98.3702 57.6099ZM53.5675 108.534C53.6233 108.132 53.7981 108.07 54.0881 107.777C53.9728 108.009 54.0918 108.351 53.5675 108.534Z" fill="#040404"/>
<path d="M53.8902 108.736C54.4766 108.724 54.3571 108.38 54.4131 107.976C54.2376 108.037 53.9462 108.331 53.8902 108.736Z" fill="#040404"/>
<path d="M145.508 40.6812C145.624 40.4471 145.564 40.2746 145.68 40.0405C145.68 40.0405 145.68 40.0405 145.444 39.9298C145.564 40.2746 145.448 40.5087 145.508 40.6812Z" fill="#040404"/>
<path d="M145.793 39.8069L145.677 40.0404C145.677 40.0404 145.677 40.0404 145.913 40.1511C145.677 40.0404 145.853 39.979 145.793 39.8069Z" fill="#040404"/>
<path d="M115.105 50.3368L114.93 50.3982C114.93 50.3982 114.989 50.5699 115.105 50.3368C114.989 50.5699 115.165 50.5085 115.105 50.3368Z" fill="#040404"/>
<path d="M54.8625 107.037C54.8625 107.037 54.6896 107.098 54.8625 107.037C54.9217 107.207 54.8625 107.037 54.8625 107.037Z" fill="#040404"/>
<path d="M54.2196 77.2651C54.2196 77.2651 54.2797 77.4368 54.2196 77.2651C54.3948 77.2042 54.2196 77.2651 54.2196 77.2651C54.1595 77.0934 54.2196 77.2651 54.2196 77.2651Z" fill="#040404"/>
<path d="M79.7609 75.8693C78.8721 74.4478 78.4501 72.6708 77.7369 71.188C77.4979 70.5017 76.792 70.1711 76.2617 69.7791C74.4318 67.9168 72.1425 67.5625 69.4535 68.8875C67.9335 69.6114 66.4135 70.3353 65.0727 71.5739C64.4901 72.1625 64.5536 72.9102 64.1465 73.4374C64.0307 73.6703 64.266 73.7806 64.4415 73.7192C65.2594 73.2408 66.1968 73.1055 66.4844 72.2351C66.716 71.7692 67.067 71.6465 67.4181 71.5237C68.8783 70.6283 70.3386 69.7328 72.0416 70.0997C73.5093 70.3565 75.3281 70.4904 76.4484 71.446C77.5688 72.4015 77.987 73.6025 78.465 74.9751C78.7003 75.0853 79.0551 75.5386 79.7609 75.8693Z" fill="#040404"/>
<path d="M74.4853 77.2255C75.0281 78.7813 75.7478 80.2754 76.4676 81.7695C77.1873 83.2636 78.2006 84.4613 79.6845 85.3009C80.4566 85.8071 80.8184 86.8443 80.9431 87.7704C81.1843 88.4619 81.6025 89.0916 81.0756 89.8573C80.959 90.0919 81.1359 90.0301 81.1962 90.203C81.3732 90.1412 81.5501 90.0795 81.4898 89.9066C81.7191 88.857 81.9484 87.8074 81.7635 86.7084C81.3976 85.0908 80.328 84.3006 79.0211 83.3993C77.7745 82.6708 77.4689 81.2261 76.6929 80.1395C76.2144 79.3369 75.9128 78.4726 75.4343 77.67C75.374 77.4971 75.0764 77.2131 74.4853 77.2255Z" fill="#040404"/>
<path d="M75.3268 92.824C75.2671 92.6525 75.032 92.5424 74.8566 92.6037C73.8041 92.9717 72.9234 92.7026 71.927 92.6664C70.6954 92.52 69.5833 92.7165 68.5234 91.9331C68.2883 91.823 67.8778 91.7742 67.527 91.8968C66.1797 91.9832 65.2393 91.5427 64.0637 90.9921C63.3584 90.6617 62.6531 90.3313 62.1232 89.9396C61.8881 89.8295 61.7126 89.8908 61.5372 89.9522C61.4215 90.1849 61.4812 90.3564 61.7164 90.4665C62.7762 91.2499 63.5449 92.3275 64.7205 92.8781C65.4855 93.3799 66.482 93.4162 67.4187 93.281C69.4079 92.7778 71.5201 93.1933 73.513 93.2658C73.9235 93.3146 74.5095 93.3021 74.92 93.3509C75.2708 93.2282 75.3865 92.9954 75.3268 92.824Z" fill="#040404"/>
<path d="M69.5625 85.3002C69.5587 84.7221 69.1463 84.673 68.674 84.4517C67.493 83.8986 66.8406 83.1608 66.6568 82.0661C66.1768 80.6886 64.9959 80.1355 63.4626 79.7055C63.2264 79.5949 62.814 79.5458 62.6378 79.6074C61.813 79.5092 61.2807 79.1158 60.8645 78.4886C60.8045 78.3164 60.5683 78.2058 60.4521 78.4395C60.2759 78.5011 60.3359 78.6733 60.5721 78.7839C61.4045 80.0383 62.4692 80.8252 63.8264 81.3167C65.1835 81.8083 65.7797 82.9521 66.6683 83.8005C67.613 84.243 68.1492 85.2146 69.5625 85.3002Z" fill="#040404"/>
<path d="M62.2638 70.5883C61.7967 70.9441 61.0382 71.5944 60.6309 72.1219C59.5846 73.643 58.9494 75.213 58.3739 76.9547C58.4337 77.1263 58.0825 77.2491 58.3179 77.3594C58.5533 77.4696 58.6691 77.2366 58.785 77.0035C59.7191 76.2918 59.9471 75.2494 60.4104 74.3171C61.1054 72.9188 61.8602 71.6922 62.8504 70.5757C63.0261 70.5144 62.9663 70.3427 62.9065 70.171C62.7907 70.4041 62.5553 70.2938 62.2638 70.5883Z" fill="#040404"/>
<path d="M71.3083 81.4009C71.2481 81.2284 71.188 81.0559 70.8911 80.7725C69.9405 79.7499 69.2827 78.4314 68.6852 77.2855C68.0876 76.1395 67.8509 76.0287 66.5549 76.2877C66.3783 76.3494 66.1417 76.2385 66.2018 76.4111L66.3221 76.7561C67.9188 77.3596 68.4 78.7397 69.2343 79.9965C69.6514 80.6249 70.2451 81.1916 70.8989 81.9309C70.9591 82.1034 71.1356 82.0418 71.1356 82.0418C71.3684 81.5734 71.3083 81.4009 71.3083 81.4009Z" fill="#040404"/>
<path d="M83.7836 86.409C83.9083 87.3355 84.5641 88.0767 84.5118 89.065C84.4554 89.4727 84.4594 90.0533 83.9887 90.4116C83.8116 90.4734 83.6949 90.7081 83.9323 90.8193C84.1697 90.9304 84.2864 90.6957 84.2864 90.6957C84.8135 89.9298 84.9865 89.2874 84.6848 88.4226C84.375 86.3966 83.3571 84.6177 82.987 82.4188C82.9267 82.2458 83.0434 82.0111 82.6289 81.9617C82.2749 82.0853 82.3956 82.4312 82.4559 82.6041C83.1157 83.9259 83.3611 85.1984 83.7836 86.409Z" fill="#040404"/>
<path d="M73.8317 95.3125C73.2433 94.7505 72.7777 95.1052 72.2526 95.2889C69.5076 95.8648 66.8186 96.0373 64.2377 94.8284C64.1818 95.2318 64.4164 95.3417 64.651 95.4516C66.5281 96.3308 68.8074 96.1096 70.9117 95.9497C72.0216 95.7535 72.8969 95.4474 73.8317 95.3125Z" fill="#040404"/>
<path d="M77.7077 89.1029C76.8726 87.845 76.2142 86.5255 74.849 85.4527C74.3751 85.2308 74.0178 84.7745 73.6605 84.3182C73.6002 84.1456 73.54 83.9729 73.4235 84.2073C73.2468 84.269 73.307 84.4416 73.3673 84.6143C73.6644 84.8979 73.9615 85.1815 74.2586 85.4651C75.5637 86.3653 76.3988 87.6231 77.2339 88.881C77.3543 89.2263 77.4747 89.5716 77.3582 89.806C77.2417 90.0403 77.065 90.102 77.3019 90.213C77.5388 90.3239 77.6553 90.0896 77.7718 89.8552C77.9485 89.7935 77.8281 89.4482 77.7077 89.1029Z" fill="#040404"/>
<path d="M68.946 72.5343C68.7705 72.5957 68.8303 72.7672 68.8303 72.7672C68.89 72.9387 68.89 72.9387 69.0655 72.8774C69.2409 72.816 69.3007 72.9876 69.4761 72.9262C71.4661 72.4229 73.0565 73.5984 74.6432 74.1981C74.8784 74.3083 74.8784 74.3083 75.1136 74.4184C75.3488 74.5286 75.4085 74.7001 75.6998 74.4059C75.8155 74.173 75.5803 74.0629 75.4048 74.1242C74.2288 73.5734 73.0528 73.0225 71.7013 72.533C70.88 72.4354 69.8271 72.8035 68.946 72.5343Z" fill="#040404"/>
<path d="M60.4654 82.313C59.7678 83.7164 60.1281 84.7502 61.43 85.6483C62.2592 86.325 63.5573 86.6446 64.5027 87.0875C64.7391 87.1982 64.9154 87.1366 64.8553 86.9643C64.9716 86.7304 64.7953 86.792 64.5589 86.6813C63.8498 86.3492 63.1407 86.017 62.4316 85.6849C61.1898 84.9591 60.3006 84.1101 60.5855 82.6576C60.7618 82.596 60.5254 82.4853 60.4654 82.313Z" fill="#040404"/>
<path d="M82.1384 81.1264C81.9542 80.03 80.9476 79.4143 80.294 78.6753C79.9973 78.392 79.7006 78.1087 79.4039 77.8254C79.3438 77.653 79.1673 77.7146 78.9908 77.7763C78.8143 77.8379 78.8744 78.0104 79.0509 77.9487C80.294 78.6753 81.0679 79.7592 81.8417 80.8431C81.7854 81.2497 81.9619 81.1881 82.1384 81.1264Z" fill="#040404"/>
<path d="M81.6796 94.3427C81.6201 94.1716 81.6201 94.1716 81.445 94.2328C80.3349 94.429 79.1616 93.8794 78.1112 94.2468C77.9361 94.308 77.7015 94.1981 77.761 94.3692C77.6456 94.6016 78.0553 94.6503 78.2304 94.589C79.3404 94.3928 80.3945 94.6001 81.3891 94.6363C81.5642 94.5751 81.7988 94.685 81.6796 94.3427Z" fill="#040404"/>
<path d="M128.76 59.933C129.113 59.8099 129.053 59.6376 128.993 59.4653C129.27 56.8563 129.607 54.4196 130.886 51.8472C131.118 51.3794 131.114 50.801 131.111 50.2226C131.167 49.8165 130.81 49.3613 131.395 48.7704C131.688 48.475 131.275 48.4259 131.039 48.3152C130.803 48.2045 130.626 48.2661 130.51 48.4999C130.338 49.1399 129.989 49.8415 129.877 50.6537C129.592 52.106 128.954 53.6814 128.906 55.2443C128.973 56.5734 128.452 57.9149 128.52 59.244C128.58 59.4162 128.464 59.6501 128.76 59.933Z" fill="#040404"/>
<path d="M134.465 76.0834C132.187 72.4087 130.619 68.4867 129.643 64.5523C128.765 66.0245 132.562 75.1924 134.465 76.0834Z" fill="#040404"/>
<path d="M123.952 61.6684C123.96 62.831 124.5 63.8081 124.685 64.9089C124.871 66.0097 125.411 66.9868 125.419 68.1494C125.479 68.3226 125.54 68.4957 125.6 68.6689C125.899 68.9534 125.903 69.5347 126.257 69.411C126.789 69.2255 126.253 68.8297 126.132 68.4834C125.999 66.3932 125.096 64.3771 124.431 62.4724C124.488 62.0642 124.544 61.6561 123.952 61.6684Z" fill="#040404"/>
<path d="M135.282 76.7976C135.049 77.267 135.17 77.6128 135.407 77.7239C136.063 78.4649 136.602 79.4406 137.08 80.2434C137.438 80.7003 137.619 81.2191 137.446 81.8613C137.329 82.096 137.567 82.2071 137.744 82.1454C137.921 82.0836 138.098 82.0218 138.214 81.7872C138.154 81.6143 138.094 81.4414 138.033 81.2685C137.551 79.8852 136.952 78.7366 135.821 77.7733C135.701 77.4275 135.58 77.0817 135.282 76.7976Z" fill="#040404"/>
<path d="M124.561 49.3899C123.972 49.4023 123.739 49.8701 123.507 50.3378C122.869 51.9132 122.997 53.4146 123.125 54.9159C123.185 55.0882 123.245 55.2605 123.421 55.1989C123.598 55.1373 123.714 54.9034 123.654 54.7312C123.71 54.325 123.65 54.1528 123.53 53.8082C123.638 52.4175 123.687 50.8546 124.561 49.3899Z" fill="#040404"/>
<path d="M129.938 78.2553C129.926 76.5122 129.382 74.9546 128.484 73.5205C128.424 73.3475 128.186 73.2362 127.892 73.5329C127.776 73.7677 127.953 73.7059 128.013 73.879C128.67 74.6208 129.032 75.6592 129.217 76.7594C129.398 77.2786 129.58 77.7978 129.938 78.2553Z" fill="#040404"/>
<path d="M98.2959 82.1351C97.5929 82.3809 96.8375 83.6084 97.2526 84.2341C97.5518 85.0931 98.8457 85.4116 99.9002 85.043C100.779 84.7358 101.011 84.2693 100.413 82.5515C100.113 81.6925 99.5262 81.705 98.2959 82.1351Z" fill="#040404"/>
<path d="M52.5694 77.9827C52.5694 77.9827 52.3337 77.8723 52.2738 77.7005C49.3859 76.204 46.3783 74.3639 43.6064 72.6341C42.8994 72.3029 42.0166 72.0332 41.4255 71.4688C41.3657 71.2969 41.014 71.4198 40.8981 71.6531C40.5502 72.353 40.0265 73.1144 40.15 74.035C40.0939 74.4401 40.5652 74.6609 40.9767 74.7099C44.392 76.022 47.8074 77.3341 51.3349 77.8359C51.5706 77.9463 51.9821 77.9952 52.2177 78.1056C52.5133 78.3879 52.6891 78.3264 52.5694 77.9827Z" fill="#040404"/>
<path d="M48.9309 90.0237C46.1908 90.5986 43.4545 91.7471 40.4765 91.6388C40.0676 91.5902 39.9523 91.8221 39.8965 92.2248C39.9596 92.9691 40.3723 93.5913 40.7849 94.2134C40.9038 94.555 41.3128 94.6036 41.6028 94.3106C42.7665 93.7121 43.9897 93.2844 44.9787 92.7469C46.6666 91.9651 48.2393 91.4152 49.8678 90.4625C50.2172 90.3403 50.682 89.9862 51.0315 89.864C51.2062 89.8029 51.4962 89.5099 51.4367 89.3391C51.3773 89.1683 51.2025 89.2294 50.853 89.3516C50.3288 89.5349 49.6299 89.7793 48.9309 90.0237Z" fill="#040404"/>
<path d="M39.3627 80.1376C39.5419 80.6523 39.8929 80.5296 40.3037 80.5784C42.2979 80.6511 44.3519 80.8952 46.3461 80.9678C47.5785 81.1143 48.8669 80.8563 49.9274 81.6403C50.1627 81.7505 50.2785 81.5175 50.3943 81.2846C50.51 81.0517 50.3905 80.7086 49.9798 80.6597C48.6876 80.3417 47.571 79.9622 46.3387 79.8157C44.225 79.4 42.1113 78.9842 40.4607 77.6368C40.1656 77.355 39.7549 77.3062 39.6988 77.7107C39.5868 78.5197 39.4747 79.3287 39.1274 80.0274C39.4784 79.9047 39.5382 80.0763 39.3627 80.1376Z" fill="#040404"/>
<path d="M38.907 84.9644C39.0262 85.3069 39.1455 85.6493 39.4958 85.5268C39.9057 85.5755 40.1405 85.6855 40.4908 85.563C43.4723 85.0967 46.3382 84.8628 49.4389 84.7389C49.6141 84.6777 49.7892 84.6164 49.9644 84.5552C50.3147 84.4327 50.4899 84.3714 50.5458 83.9677C50.4266 83.6253 50.0762 83.7478 49.9011 83.809C48.3805 83.9566 46.9756 83.8717 45.5109 83.6155C44.0463 83.3594 42.7569 83.042 41.2923 82.7859C39.3581 82.3098 39.183 82.371 39.0188 84.157C39.0225 84.732 38.907 84.9644 38.907 84.9644Z" fill="#040404"/>
<path d="M54.1794 96.598C53.5385 97.0142 52.7224 97.4915 52.1411 98.0789C50.278 99.4985 48.1802 100.808 46.0227 101.947C45.6725 102.069 45.1471 102.253 45.1508 102.828C45.3892 103.512 45.7431 103.965 46.4473 104.294C46.9168 104.514 47.2075 104.221 47.4981 103.927C48.3701 103.046 49.3575 101.933 50.2295 101.052C51.5076 99.6446 52.9049 98.5799 54.4178 97.2828C54.5333 97.0504 54.8836 96.9279 54.7644 96.5855C54.47 96.3044 54.3545 96.5368 54.1794 96.598Z" fill="#040404"/>
<path d="M49.5828 94.6847C47.6598 95.3572 46.0306 96.3102 44.0481 96.8118C42.2404 97.2522 42.2999 97.4231 42.8354 98.9611C43.1924 99.9864 43.4267 100.096 44.2972 99.2167C46.0975 97.6287 48.3107 96.6631 50.4048 95.3558C50.8698 95.0015 51.3942 94.8181 51.8592 94.4638C52.034 94.4027 52.3836 94.2804 52.0898 93.9998C51.9708 93.658 51.6212 93.7803 51.4464 93.8414C50.9814 94.1957 50.2821 94.4402 49.5828 94.6847Z" fill="#040404"/>
<path d="M51.8373 85.4888C51.2536 85.5013 50.495 85.5749 49.7365 85.6485C48.0446 85.8568 46.178 86.1262 44.4862 86.3346C44.3114 86.3957 44.0772 86.286 44.0214 86.6887C44.0809 86.8596 44.2556 86.7985 44.4899 86.9082C46.8808 86.4554 49.3312 86.1735 51.6663 86.1235C51.841 86.0624 52.0158 86.0013 52.1906 85.9401C52.3653 85.879 52.6554 85.586 52.4211 85.4763C52.2427 84.9638 52.1869 85.3665 51.8373 85.4888Z" fill="#040404"/>
<path d="M46.4143 100.235C47.8107 99.1707 49.2667 98.2778 50.4881 97.2749C50.6631 97.2137 50.7786 96.9815 50.544 96.8716C50.4844 96.7005 50.3094 96.7617 50.194 96.994C48.913 97.8257 47.8071 98.5963 46.5857 99.5991C46.4702 99.8314 46.2952 99.8926 46.4143 100.235Z" fill="#040404"/>
<path d="M60.7088 98.0007C60.1218 98.0132 60.0657 98.4182 59.9498 98.6514C59.4301 99.9891 58.7907 100.983 58.2112 102.149C58.0953 102.383 57.9195 102.444 58.1551 102.554C58.3906 102.665 58.3308 102.493 58.5065 102.431C59.3777 100.971 60.0732 99.5716 60.7088 98.0007Z" fill="#040404"/>
<path d="M48.4366 93.6976C49.4837 93.3315 50.5901 93.136 51.4627 92.831C51.6372 92.77 51.9862 92.6479 51.8674 92.3068C51.808 92.1362 51.459 92.2582 51.2845 92.3193C50.2374 92.6853 49.131 92.8808 48.3772 93.527C48.3772 93.527 48.3772 93.527 48.4366 93.6976Z" fill="#040404"/>
<path d="M54.1173 94.2588C53.1269 94.797 52.196 95.5062 51.2652 96.2154C51.1498 96.4477 50.7998 96.5701 50.9189 96.9122C51.213 97.1931 51.2689 96.7898 51.3843 96.5575C52.1402 95.9095 53.3055 95.3101 54.0614 94.6621C54.2364 94.6009 54.6459 94.6495 54.5268 94.3074C54.6422 94.0752 54.2922 94.1976 54.1173 94.2588Z" fill="#040404"/>
<path d="M45.1772 73.24C46.7105 74.2457 48.4757 74.785 49.8894 75.4471C50.125 75.5575 50.125 75.5575 50.3008 75.496C50.4167 75.2628 50.1811 75.1524 50.0053 75.2139C49.0629 74.7724 48.1205 74.331 47.2379 74.0614C46.7666 73.8407 46.1197 73.6814 45.7644 73.2274C45.7045 73.0556 45.4689 72.9453 45.1772 73.24Z" fill="#040404"/>
<path d="M43.942 88.6581C43.7672 88.7192 43.5925 88.7803 43.4772 89.0123L43.3619 89.2442C43.4214 89.415 43.5962 89.3539 43.5962 89.3539C44.6448 88.9873 45.9277 88.7303 47.0953 88.7053C47.2701 88.6442 47.4449 88.5831 47.3854 88.4123C47.3259 88.2415 47.1511 88.3026 47.1511 88.3026C45.9835 88.3275 45.0501 88.4623 43.942 88.6581Z" fill="#040404"/>
<path d="M53.1422 102.166C53.9563 101.112 54.7705 100.057 55.7601 98.9417C55.7601 98.9417 55.8758 98.7088 55.6406 98.5986C55.5808 98.427 55.4053 98.4884 55.2896 98.7213C54.4754 99.7757 53.4261 100.72 52.8472 101.885C53.0825 101.995 53.1422 102.166 53.1422 102.166Z" fill="#040404"/>
<path d="M53.0793 82.9111C51.906 82.3616 50.4458 82.6801 49.2763 82.7052C50.4495 83.2547 51.7346 82.9974 53.0793 82.9111Z" fill="#040404"/>
<path d="M42.8993 76.7554C42.8433 77.1599 43.2541 77.2088 43.2541 77.2088C44.1354 77.478 44.957 77.5757 45.8383 77.8449C46.0736 77.9551 46.2491 77.8937 46.1894 77.7222C46.3051 77.4892 46.2454 77.3177 46.0101 77.2074C45.013 77.1712 43.9562 76.9633 42.8993 76.7554Z" fill="#040404"/>
<path d="M51.5889 100.986C50.8907 101.807 49.8975 102.347 49.4345 103.278C49.4345 103.278 49.4942 103.45 49.554 103.621C49.554 103.621 49.7892 103.731 49.7295 103.56C50.4277 102.738 51.3611 102.027 51.5889 100.986Z" fill="#040404"/>
<path d="M55.8304 106.491C56.5891 105.84 56.8768 104.969 57.4 104.208C57.4 104.208 57.5159 103.975 57.2804 103.865C57.0449 103.755 57.1047 103.926 56.9291 103.988C56.4657 104.92 56.1181 105.62 55.8304 106.491Z" fill="#040404"/>
<path d="M49.1317 106.308C49.4266 106.589 49.6021 106.528 49.7178 106.295C49.9492 105.83 50.2403 105.535 50.5315 105.241C50.7069 105.18 50.6472 105.008 50.5874 104.837C50.3523 104.727 50.412 104.898 50.2366 104.96C49.9454 105.254 49.714 105.719 49.4229 106.014C49.2475 106.075 49.3072 106.246 49.1317 106.308Z" fill="#040404"/>
<path d="M43.1893 102.153C43.2489 102.324 43.4835 102.434 43.5989 102.201C44.2396 101.785 44.7051 101.43 45.0515 100.733C44.4109 101.149 43.7703 101.565 43.1893 102.153Z" fill="#040404"/>
<path d="M27.2966 99.1371C28.6902 98.6499 29.9096 98.2236 31.129 97.7973C32.2892 97.2007 33.8014 97.0541 34.9615 96.4575C35.1357 96.3966 35.4841 96.2748 35.4248 96.1045C35.3655 95.9343 35.0171 96.0561 34.8429 96.117C32.3448 96.7993 29.9652 97.8221 27.3522 98.7356C27.3522 98.7356 27.178 98.7965 27.2966 99.1371Z" fill="#040404"/>
<path d="M24.3239 98.4306C22.9294 98.9181 21.2457 99.6979 19.6769 100.246C19.5026 100.307 19.154 100.429 19.2133 100.6C19.332 100.94 19.4469 100.709 19.7955 100.587C21.8279 99.6855 23.9196 98.9542 26.0114 98.2229C26.1857 98.1619 26.36 98.101 26.5343 98.04C26.7086 97.9791 27.0572 97.8572 26.9979 97.6868C26.8792 97.3461 26.5899 97.6383 26.3563 97.5289C25.7184 97.943 25.1955 98.1259 24.3239 98.4306Z" fill="#040404"/>
<path d="M23.1837 100.191C21.3816 100.63 19.8725 101.349 18.1298 101.958C17.9555 102.019 17.7812 102.08 18.0148 102.189C18.0742 102.36 18.2484 102.299 18.4227 102.238C19.6426 101.811 20.8625 101.385 22.0824 100.958C22.6053 100.776 22.9538 100.654 23.1837 100.191Z" fill="#040404"/>
<path d="M9.25329 105.059C10.069 105.156 10.9404 104.852 11.6374 104.608C12.8573 104.182 14.0772 103.755 15.2971 103.329C15.4713 103.268 15.6456 103.207 15.8199 103.146C15.9941 103.085 16.1684 103.024 16.1091 102.854C16.0498 102.683 15.8755 102.744 15.7012 102.805C14.4814 103.232 13.2615 103.658 12.1009 104.255C11.5781 104.438 10.881 104.681 10.2989 104.694C9.89104 104.645 9.48319 104.597 9.25329 105.059Z" fill="#040404"/>
<path d="M16.0855 101.697C16.7284 101.855 17.3677 101.44 18.1259 101.367C18.3006 101.306 18.4753 101.245 18.4158 101.074C18.3563 100.903 18.1816 100.964 18.1222 100.793C17.364 100.867 16.7247 101.282 16.0855 101.697Z" fill="#040404"/>
<path d="M56.8336 94.2639C57.0098 94.2023 57.422 94.2514 57.302 93.9071C57.1221 93.3906 57.3544 92.9231 57.3505 92.3451C56.766 92.9356 56.6499 93.1693 56.8336 94.2639Z" fill="#040404"/>
<path d="M54.201 84.4851C54.0251 84.5465 54.085 84.7184 54.085 84.7184C54.2048 85.0622 54.4405 85.1726 54.6763 85.283C54.912 85.3935 55.2076 85.6758 55.4395 85.2091C55.5554 84.9758 55.1439 84.9268 54.9082 84.8164C54.6724 84.7059 54.4367 84.5955 54.3768 84.4236C54.4367 84.5955 54.3768 84.4236 54.201 84.4851Z" fill="#040404"/>
<path d="M56.2279 91.3723C55.7597 91.7289 55.5875 92.3682 55.7674 92.8845C56.2356 92.5279 56.2317 91.9501 56.2279 91.3723Z" fill="#040404"/>
</g>
</svg>
