<?xml version="1.0" encoding="UTF-8"?><!DOCTYPE svg PUBLIC "-//W3C//DTD SVG 1.1//EN" "http://www.w3.org/Graphics/SVG/1.1/DTD/svg11.dtd"><svg xmlns="http://www.w3.org/2000/svg"><symbol id="svg-callback-icon" viewBox="0 0 36 11">
    <path d="M1 9a1 1 0 1 0 0 2V9zm32 1v1h2.414l-1.707-1.707L33 10zM24.707.293a1 1 0 1 0-1.414 1.414L24.707.293zM1 11h32V9H1v2zm32.707-1.707l-9-9-1.414 1.414 9 9 1.414-1.414z"/>
</symbol><symbol id="svg-dishes-broccoli" viewBox="0 0 137 141">
    <path d="M67.292 7.396c6.316-2.114 11.42-.339 14.727 5.945 2.937-2.495 5.987-5.235 9.889-3.424 4.39 2.037 8.988 2.984 13.7 3.687 3.754.852 3.727 4.105 4.17 6.981 3.153.87 6.889 1.12 9.816 2.479 3.901 1.81 2.575 5.944 2.435 9.44.601-.017 1.088.21 1.933.305 7.752 1.817 9.909 9.941 4.784 15.873-.584.62-1.281 1.483-2.109 1.99-3.05 2.74-3.015 3.943.66 6.242 5.268 3.336 8.105 9.995 6.831 15.934-.227.488.034 1.203.278 1.316 3.091 2.919 2.105 6.32 1.477 9.59-.629 3.27-2.964 5.747-6.049 7.284-.47.375-.827.506-1.542.768.79 6.6-1.206 8.345-7.827 12.395-4.496 2.662-11.256 1.9-14.834-1.245-1.525 1.37-3.408 2.87-4.802 4.598-2.205 2.835-6.282 3.317-9.713 1.131-.488-.226-.88-1.299-1.48-1.281-5.75.894-3.84-3.86-4.77-6.963-5.019 1.233-9.295-1.049-13.797-2.842-3.528-1.34-5.801-.911-7.632 2.394-2.85 5.504-4.857 11.103-7.708 16.606-2.737 5.26-3.184 10.692-3.5 16.481-.316 5.79-2.538 8.024-8.566 7.6-8.318-.596-15.146-3.765-21.198-9.245l-.244-.113c-1.236-1.167-3.822-3.258-3.596-3.747 1.134-2.442 3.112-4.788 5.108-6.534 1.638-1.614 4.513-2.06 5.663-3.901 1.962-2.948 3.191-6.236 3.933-9.75 1.258-6.54 1.914-13.062 2.944-19.114-2.064-.661-3.527-1.34-5.104-1.775-1.088-.209-2.177-.417-3.249-.024-5.959 1.983-9.843.774-13.247-4.665-.244-.113-.6.018-.845-.095-5.845 1.74-9.016.268-11.574-5.075-.261-.715-.653-1.787-.313-2.52 2.058-3.794.152-7.35-.796-11.055-.653-1.787.724-4.116 1.03-6.051.21-1.09.42-2.18.158-2.895-1.418-3.33-.24-8.422 2.697-10.918 2.352-1.876 4.461-3.866 6.196-6.325 3.355-4.676 7.79-5.29 12.745-4.473-2.27-7.88-.456-11.788 6.801-14.652-.092-7.464 6.269-12.229 13.533-10.638.845.095 2.143-.786 2.727-1.405 4.88-6.046 11.1-7.314 17.004-2.793 1.35.923 2.003 2.71 3.256 4.48zm40.746 87.18c-.618-.585-.862-.698-1.105-.81l-2.247-2.824c1.202-.036 2.648.042 3.72-.352 1.429-.524 3.345-.821 3.799-1.798 1.037-1.597 1.099-3.645 1.762-5.712.113-.245-.732-.34-.862-.697-.862-.697-1.724-1.394-2.83-2.204.941-.75 1.882-1.501 2.953-1.894 2.971-1.293 3.26-3.83 3.548-6.367.289-2.538-1.061-3.461-3.369-4.236-2.665-.643-2.83-2.204-.591-3.835.471-.376 1.072-.394 1.299-.882.68-1.465 2.074-3.192 1.909-4.753-.147-.959-2.342-1.978-3.692-2.9-.244-.114-.958.148-1.088-.21-.732-.339-1.707-.792-1.725-1.393-.017-.602.681-1.466 1.151-1.84.471-.376 1.298-.882 2.013-1.144 3.798-1.799 3.877-3.246 1.257-6.54-1.498-1.883-3.057-1.716-4.843-1.06-3.798 1.798-3.798 1.798-5.234-2.133-.653-1.787-1.793-3.8-3.143-4.724-2.943-1.96-6.872-.518-9.321 2.203-1.865 2.103-3.991 3.49-6.23 5.123-.471.375-1.316.28-1.804.053-.374-.47-.522-1.43-.539-2.03.76-2.913 1.762-5.713 2.39-8.983.97-4.003-1.407-7.183-5.275-7.791-4.355-.834-4.86-1.662-3.42-6.04.323-1.334.628-3.27-.007-4.455-1.549-3.687-5.303-4.54-8.614-2.514-.828.506-2.257 1.03-3.101.935-.488-.227-1.254-1.77-1.158-2.615.368-3.985-2.541-4.742-5.337-5.742-3.284-1.228-6.01.178-7.501 2.751-.794 1.71-1.082 4.247-2.154 4.64-1.429.524-3.397-.983-5.217-1.531-3.153-.87-5.506 1.006-7.614 2.996-1.752 1.858-.742 3.514.625 5.039.374.47.408 1.674.068 2.406-.47.375-1.542.768-2.273.429-2.308-.774-3.72.351-5.001 1.834-3.033 3.342-2.817 6.707-.91 10.263 1.531 3.086.38 4.926-3.112 4.789-2.291-.173-4.713-.703-7.003-.876-1.09-.209-2.875.447-3.102.935-.367 3.985-3.582 5.164-6.048 7.284-2.24 1.632-3.73 4.205-2.346 6.332 2.002 2.71.477 4.08-.787 6.164a6.572 6.572 0 0 0-1.36 2.931c.148.959.556 2.633 1.288 2.972 4.276 2.282 4.276 2.282 2.105 6.32-.226.489-.81 1.108-.68 1.465.783 2.145 1.34 4.777 2.837 6.66 1.741 1.995 3.119-.334 4.643-1.704 1.412-1.125 3.329-1.423 4.87-2.191.166 1.56.33 3.12.609 4.437a24.929 24.929 0 0 0 1.827 5.003c1.9-.899 3.929-1.44 5.584-2.453 1.185-.638 1.865-2.103 2.92-3.097.47-.376 1.185-.638 1.9-.9.26.715.765 1.543.669 2.389.034 1.203-.175 2.293-.141 3.496 3.067-2.138 4.314-4.824 1.954-7.403-3.108-3.52-6.556-6.309-9.891-9.34-1.106-.81-2.456-1.734-4.338-.233-.584.62-2.778-.4-3.884-1.21-.488-.226-.67-2.388-.67-2.388 2.126-1.388 2.755-4.658 6.248-4.52 2.046.06 3.458-1.066 1.586-3.42-1.253-1.768-.556-2.632 1.378-2.328 1.69.19 3.38.381 5.557.798l1.597-7.272c.244.113.601-.018.845.095.278 1.316.312 2.52.704 3.592.278 1.316.8 2.745 1.078 4.062 1.168-1.239 2.336-2.478 3.373-4.074l.567-1.221c.567-1.221 1.264-2.085 2.074-3.193-.374-.47-1.236-1.167-2.342-1.977.941-.75 1.638-1.614 2.58-2.365.862.697 1.366 1.525 2.229 2.222 4.643-1.703 5.618-1.25 5.024 3.223 3.153.87 3.895-2.645 6.526-3.205-.436 1.579-1.003 2.8-1.44 4.378-.645 2.669-1.404 5.581-1.449 8.232.017.601 1.985 2.108 2.456 1.733 2.858-1.048 5.454-2.81 8.538-4.348-1.123-1.411-1.645-2.84-2.75-3.65-2.1-1.865-.948-3.706.202-5.546.227-.489 1.185-.638 1.786-.655.244.113.862.697.88 1.298.26.715-.08 1.448-.063 2.05 3.8-1.8 5.393-.763 5.643 3.806 5.977-1.382 5.06 4.425 7.062 7.136.096-.846-.035-1.204-.165-1.561-.295-1.918.124-4.098 2.528-4.17 2.16-.184 2.098 1.865 2.263 3.426.313 2.52 1.226 5.021-1.728 6.915-.357.131-.34.733-.21 1.09.54 2.031.722 4.193 1.392 6.582 1.071-.393 1.786-.655 2.744-.804.601-.018 1.333.322 1.82.548-1.23 3.288.251 4.568 3.273 5.08 0 0 .244.114.13.358.993 1.054 1.296 7.428.729 8.649-.34.733-.924 1.352-1.508 1.971 1.089.209 1.934.304 3.022.513l1.464.679c-.941.75-1.77 1.256-2.11 1.99-.453.976-.532 2.423.087 3.007 2.864 3.407 2.864 3.407.188 6.618l-.566 1.22c1.123 1.412 2.115 2.467 3.238 3.878.358-.131.959-.149 1.43-.524 2.239-1.632 4.591-3.508 7.761-2.036.732.339 2.161-.185 2.858-1.049.567-1.22 1.831-3.305 3.338-5.277zm-19.494-.145c-2.665-.643-4.974-1.418-7.02-1.477-3.737-.25-6.89-1.12-9.607-3.568-3.71-3.503-3.42-6.04 1.206-8.345 2.37-1.275 4.983-2.436 7.467-3.955-1.21-4.42-3.902-1.81-6.176-1.382-4.434.613-8.85 1.828-13.171 2.197-3.964.238-5.348-1.888-4.493-5.647.952-4.604 3.366-8.529 6.887-11.644l5.646-4.503c-.13-.357-.017-.601-.147-.959-1.56.167-3.25-.024-4.434.614-2.727 1.405-5.324 3.168-8.051 4.574-3.084 1.536-5.636.649-6.454-2.699-.67-2.388-.267-5.17-.467-7.934-2.551-.887-2.727 1.406-3.276 3.228-.838 4.36-1.546 9.078-2.384 13.438-.096.846-1.037 1.596-1.49 2.573-.976-.453-2.195-1.019-2.7-1.847-2.394-3.782-4.544-7.451-6.694-11.12l-4.678.5-3.174 6.837c.976.453 2.082 1.263 3.057 1.716 5.643 3.806 10.702 8.232 11.51 15.433.215 3.366-.17 6.749-.31 10.245-.605 8.327-1.697 16.428-4.837 24.469-1.116 3.044-2.85 5.503-5.821 6.796-1.185.637-2.37 1.274-3.799 1.798.732.34 1.463.68 1.934.304 2.857-1.048 5.41-.16 7.978 1.329 2.57 1.489 5.382 3.092 8.291 3.848 2.91.757 5.234 2.133 6.522 5.105.21-1.09.306-1.936.402-2.782.725-4.115 1.206-8.344 2.175-12.347.419-2.18 1.683-4.265 2.59-6.218 1.456-3.777 2.912-7.553 4.612-11.216 3.627-7.814 7.896-9.988 15.83-6.01 1.707.793 3.658 1.699 5.461 1.645 1.951.905 5.087 1.174 7.615-2.996zm29.521-40.615c1.071-.393 2.387-.673 3.328-1.423 1.411-1.126 2.449-2.722 3.486-4.318 1.151-1.84 2.658-3.812 3.191-6.236.742-3.515-.756-5.397-4.135-5.778-1.69-.191-3.607.107-6.011.178l-.494-4.682c-.66-6.242-3.716-7.957-8.927-5.033-1.542.768-2.256 1.03-2.795-1.001-.409-1.674-.722-4.193-1.828-5.003-2.83-2.204-5.79-4.766-10.53-2.217 1.082-4.246-1.566-4.288-3.857-4.461-2.29-.173-4.922.387-5.68 3.3-.324 1.334-.045 2.65.363 4.324-.6.018-1.803.053-3.249-.024 2.926 1.358 6.55 1.852 7.934 3.979 1.384 2.127.886 5.754 1.102 9.12 3.147-3.586 7.014-2.979 10.768-2.127 1.576.435 3.527 1.34 4.406 2.64 1.872 2.352 3.256 4.478 6.749 4.616 1.202-.036 2.308.774 3.414 1.584 3.579 3.145 3.943 7.47 2.765 12.562zm-9.951 47.621c5.069.572 8.772-.381 12.344-1.691 3.929-1.441 3.912-2.043 1.648-5.468-1.253-1.77-.25-4.569 1.762-5.712 1.9-.9 3.913-2.043 5.551-3.657 3.52-3.115 3.373-4.074.622-7.725-1.384-2.127-4.101-4.575-.32-6.975.715-.262.89-2.556.498-3.628-1.044-2.859-2.802-5.456-6.426-5.95-3.754-.852-4.399 1.816-5.663 3.9 4.31 3.485 4.726 9.614.508 13.593-.584.62-1.508 1.972-1.134 2.442 1.288 2.972-.089 5.301-1.353 7.386-2.397 4.527-4.925 8.696-8.037 13.485zM58.735 74.363c6.663 1.609 12.135-.601 17.85-2.697-3.448-2.788-1.618-6.094-1.102-9.12-1.106-.81-1.968-1.507-3.074-2.317-1.35-.923-2.683-1.245-4.452.012-4.234 3.377-7.59 8.053-9.221 14.122zm-35.284 53.671c6.46 7.154 14.133 10.418 23.262 9.907-.704-3.592-2.916-5.212-6.426-5.951a14.182 14.182 0 0 1-6.096-2.83c-3.335-3.032-6.697-2.811-10.74-1.126zm48.703-42.99c3.012 4.365 6.766 5.218 11.087 4.848.01-3.853.02-7.707.275-11.448-3.555 1.912-7.337 4.312-11.362 6.6zM40.526 64.426c.357-.131.6-.018.958-.149.594-4.473 1.432-8.833 2.026-13.306l-1.219-.566c-1.865 2.102-3.843 4.45-5.708 6.552 1.401 2.728 2.672 5.098 3.943 7.469z"/>
</symbol><symbol id="svg-dishes-ellipse" viewBox="0 0 27 27">
    <path d="M13.5 25a1 1 0 1 0 0 2v-2zm0-23a1 1 0 1 0 0-2v2zm8.088 2.423l.276-.962-3.693-1.058 2.708 2.725.71-.705zM5.412 22.577l-.276.962 3.693 1.058-2.708-2.725-.71.705zM25.724 6.65a1 1 0 1 0 .552-1.923l-.552 1.923zM1.276 20.35a1 1 0 0 0-.552 1.923l.552-1.923zM24.265 13.5c0 6.41-4.876 11.5-10.765 11.5v2c7.106 0 12.765-6.102 12.765-13.5h-2zm-21.53 0C2.735 7.09 7.611 2 13.5 2V0C6.394 0 .735 6.102.735 13.5h2zM20.88 5.128c2.079 2.092 3.386 5.063 3.386 8.372h2c0-3.84-1.518-7.318-3.968-9.782l-1.418 1.41zM6.12 21.872C4.042 19.78 2.735 16.81 2.735 13.5h-2c0 3.84 1.518 7.318 3.967 9.782l1.42-1.41zM21.313 5.384l4.411 1.265.552-1.923-4.412-1.265-.551 1.923zM5.687 21.616l-4.411-1.265-.552 1.923 4.412 1.265.551-1.923z"/>
</symbol><symbol id="svg-dishes-ribs" viewBox="0 0 175 147">
    <g opacity=".1">
        <path d="M141.932 91.522c2.316 2.742.528 5.169-1.545 6.804-1.947 1.368-3.928 1.409-5.926.786l-.268-.127c-2.499.449-3.745-1.783-4.974-3.352-.962-1.44-2.442-2.473-3.797-3.773l-.535-.255c-.785.282-1.981.041-2.624.718.426 1.187 1.246 2.232 2.191 3.01.945.777 1.371 1.963 2.191 3.01.552.917-.45 3.063-1.612 4.149-1.93 2.031-4.179 1.945-6.695 1.73-.928-.113-2.374.182-3.177-.2l-1.07-.509c-1.497-1.696-3.386-3.251-4.633-5.483-.284-.791-.819-1.046-1.371-1.964-.694-1.314-1.497-1.696-2.533-.878-1.037.818-2.09.973-3.285.731 1.354 1.3 2.458 3.137 3.813 4.438 1.355 1.3 1.924 2.882 2.367 4.732.427 1.186-.342 2.132-1.646 2.822-2.875 1.254-5.909 1.449-9.069 1.912-1.446.295-2.533-.878-3.745-1.782-.268-.128-.945-.778-1.748-1.16-.802-.382-1.212-.905-1.496-1.696-1.389-2.627-3.688-4.705-4.559-7.741-1.019 1.481-2.072 1.636-3.41 1-.535-.256-1.338-.638-1.713.167-.251.536.552.918.694 1.314 1.906 2.218 3.688 4.705 5.594 6.924.41.522.678.65 1.087 1.172 1.355 1.301 1.406 3.292.119 4.646-2.967 2.849-6.77 3.99-11.016 3.28-.928-.114-1.213-.905-1.748-1.16-1.622-1.427-3.512-2.982-5.134-4.41-2.425-1.809-3.42-4.578-5.202-7.064-.551-.919-.71-1.978-1.263-2.896-.142-.396-.142-.396-.677-.65-2.8-1.005-4.565-2.828-6.079-5.188-1.781-2.486-4.08-4.564-6.255-6.91-1.89-1.555-3.261-3.519-4.507-5.75-1.782-2.488-3.814-4.438-5.202-7.066-1.246-2.232-2.225-4.336-3.078-6.71-.427-1.186-.854-2.372-1.406-3.29-1.639-2.092-2.618-4.196-2.685-6.851-.193-2.386-1.565-4.35-3.062-6.046-1.639-2.091-3.67-4.042-5.31-6.133-.552-.918-1.48-1.032-2.032-1.95-2.458-3.137-2.418-6.723-1.324-10.464.376-.805.752-1.61.86-2.541.108-.932.752-1.609 1.663-2.159 1.713-.168 3.268-1.395 5.107-1.83 2.624-.718 5.157.16 7.816.769 2.658.61 5.459 1.615 7.884 3.424 1.212.905 2.943 1.4 4.656 1.233 2.374-.181 4.606-.758 6.854-.672 2.642-.054 5.158.16 7.817.77 2.123.355 3.62 2.05 5.242 3.478 1.354 1.3 2.943 1.4 4.673 1.897.535.254.928.114 1.037-.818-.018-.664.5-1.073 1.178-.423l.535.255c1.964-.704 4.088-.35 5.926-.785 1.179-.423 2.25.086 3.32.596l4.012 1.91c.945.777 1.873.89 2.659.61 1.32-.028 2.641-.055 3.82-.477 3.017-.859 5.658-.913 8.476.756 1.873.89 3.996 1.246 5.96.542 3.018-.859 5.551.019 7.44 1.574 2.693 1.937 5.26 4.142 7.309 6.756 1.371 1.964 3.136 3.787 5.151 5.073 2.157 1.683 3.796 3.774 5.435 5.865 2.459 3.137 4.917 6.274 7.769 9.27.409.523.677.65.694 1.314.87 3.036 3.17 5.114 5.344 7.46 1.497 1.695 2.333 3.405 3.437 5.241.142.396.285.791.552.919.928.113.678.65.159 1.059l-.25.536c.535.255.786-.282 1.053-.154.393-.141.786-.282.803.382.142.395-.376.804-.644.677-.802-.382-.785.282-.911.55-1.554 1.227-.484 1.736.336 2.782 1.496 1.695 2.993 3.391 4.365 5.355.962 1.441.728 2.641-.969 3.473-1.964.704-3.928 1.408-5.909 1.448-1.714.168-3.319-.596-4.155-2.305-.837-1.71-2.317-2.741-3.546-4.31-1.104-1.836-2.174-2.346-3.603-1.387zm-48.309-2.995c-.786.281-1.162 1.086-1.68 1.495.786-.282 1.43-.959 1.68-1.495.267.127.393-.141.518-.41-.267-.127-.393.142-.518.41zm39.202-6.911c-1.053.154-1.554 1.227-2.465 1.777.802.382 1.07.51 1.446-.295.25-.537.769-.946 1.019-1.482.268.127.393-.14 0 0 .125-.268.125-.268 0 0zm18.182 3.08c.928.114 1.213.905 1.89 1.555.142.396.677.65.928.114.518-.409.376-.804-.284-.79-.268-.128-.536-.255-.143-.396.894-1.214-.176-1.723-.193-2.386-.911.55-1.696.831-2.198 1.904-.142-.396-.142-.396 0 0-.267-.128-.267-.128 0 0zm-75.674 27.578l.267.127c-.267-.127-.142-.396-.267-.127 1.645-2.823 3.86-4.063 6.895-4.258 1.32-.027 2.499-.45 3.962-.081-1.64-2.092-3.153-4.451-5.185-6.401-.82-1.046-1.64-2.092-2.208-3.674-.552-.918-3.244-2.855-4.03-2.573-1.964.704-4.087.35-5.926.785-.393.141-.786.282-1.304.69-2.181 2.569-2.181 2.569-.65 5.592l.142.395c1.23 1.569 1.673 3.419 2.902 4.987 1.89 1.555 3.387 3.251 5.402 4.538zm38.355-65.99c.267.128.267.128 0 0 .25-.535.501-1.072.484-1.735-.017-.664.234-1.2.769-.946.535.255.409.523.159 1.06-.234 1.2-.342 2.131-.576 3.331-.25.537.285.791.678.65.267.128.392-.14.25-.536l.251-.536c.25-.537-.176-1.723.894-1.214.802.382.034 1.328-.092 1.596-.626 1.34-.342 2.131.871 3.036.25-.536.108-.932.359-1.468-.143-.395-.16-1.06.768-.945.661-.014.285.79.427 1.186-.359 1.468-.843 3.205 1.03 4.096.25-.537.359-1.468.342-2.132.125-.268.108-.932.643-.677.393-.14.41.523.285.79-.126.27.016.664-.234 1.2-.877 1.878-.701 3.6.528 5.17.234-1.2.61-2.005.843-3.205.251-.537.251-.537.644-.677.66-.014.802.382.552.918-.501 1.072-.2 2.527-1.361 3.613l-.126.268c.41.523.569 1.582 1.372 1.964.159 1.06.962 1.441 1.906 2.219.234-1.2.735-2.273.969-3.473.251-.536.376-.804.643-.677.661-.013.41.523.285.791-.109.932-.217 1.864-.718 2.936-.501 1.073-.342 2.132.603 2.91 0 0-.126.268.267.127l.126-.268c.375-.805.609-2.005.985-2.81.125-.267.108-.93.643-.676.536.254.41.523.16 1.059-.376.804-.359 1.468-.735 2.272-.251.537-.501 1.073-.484 1.737.836 1.709 2.065 3.277 3.169 5.114.092-1.596.451-3.064 1.077-4.404.126-.269.109-.932.644-.677.535.254.409.522.159 1.059-.359 1.468-.593 2.668-1.219 4.008-.376.805-.359 1.469.067 2.655.61-2.004 1.487-3.881 2.239-5.49.125-.269-.159-1.06.376-.805s.677.65.426 1.187c-.751 1.608-1.236 3.345-1.987 4.954-.894 1.213-.217 1.863.335 2.782.142.395.41.522.803.382l.25-.537c.484-1.736.826-3.868 1.311-5.604l.877-1.877c.125-.268.518-.41.785-.282.536.255.143.396-.108.932l-.626 1.34c-.61 2.005-.952 4.137-1.436 5.873-.251.537-.501 1.073-.359 1.468.677.65.836 1.71 1.639 2.092.802.382.945.777.962 1.44.392-.14.518-.408.643-.677.627-1.34.986-2.808 1.612-4.15.251-.535.501-1.072 1.304-.69.535.255.017.664-.234 1.2l-.125.268c-.752 1.61-.826 3.868-2.381 5.095 0 0-.393.141-.125.268.677.65.176 1.723.853 2.373.678.65.427 1.187-.484 1.737.945.777 1.856.227 2.784.341.928.114 1.446-.295 1.019-1.482l-.125.269c-.125.268-.644.677-.911.55-.268-.128-.017-.664.108-.932.376-.805 1.145-1.75 1.521-2.555.125-.268.376-.804.911-.55.535.255.552.919.159 1.06-.125.268-.518.409-.109.931l3.485-3.258c.518-.409 1.036-.818 1.446-.295.82 1.045 1.196.24 1.446-.295.518-.41 1.037-.818 1.697-.832-1.639-2.091-3.404-3.914-5.043-6.005-1.354-1.3-1.405-3.292-2.76-4.592-2.726-3.264-5.452-6.528-8.053-10.06-1.639-2.092-3.546-4.31-5.828-5.724-1.48-1.033-2.835-2.333-3.939-4.17-.694-1.313-1.781-2.486-3.119-3.123-.802-.382-1.622-1.427-2.299-2.077-2.584-2.87-6.187-4.256-9.706-2.325.928.114.82 1.046 1.497 1.696l.125-.268c.251-.537.501-1.073 1.037-.818.535.254.016.663.159 1.059-.393.14-.376.804-.359 1.468zm7.318 38.23c.159 1.059.051 1.99.21 3.05l.268.127 3.007-6.436c1.605.764-.359 1.468.193 2.387.786-.282 1.162-1.086 1.697-.832.535.255.66-.013 1.053-.154.769-.946 1.805-1.763 2.448-2.44.393-.141.376-.805.911-.55.41.522-.108.931-.233 1.2-.644.677-1.555 1.227-2.324 2.172l-.125.268.268.127c.535.255.785-.281.911-.55.768-.945 1.679-1.495 2.323-2.172.518-.409 1.304-.69 1.463.369-.126.268.142.395.267.127.126-.268.518-.409.251-.536-.268-.128-.41-.523-.41-.523-1.212-.905-2.032-1.95-2.601-3.532-.978-2.105-1.564-4.35-2.936-6.315-1.371-1.964-2.35-4.068-3.847-5.764-2.174-2.346-3.688-4.705-4.951-7.601-.569-1.582-1.531-3.023-2.618-4.196-2.174-2.346-4.081-4.565-5.344-7.46-.444-1.85-1.673-3.419-3.922-3.505-.66.013-1.07-.51-1.605-.764-1.07-.51-2.265-.75-3.319-.597-2.248-.086-4.338.886-6.57 1.463 2.818 1.669 4.474 4.423 6.13 7.178.217-1.863.844-3.204 1.738-4.417.125-.269.375-.805.911-.55.535.254.284.79.033 1.327l-1.503 3.218c-.894 1.213-.593 2.668.227 3.714.552.918 1.246 2.232 2.066 3.277.142.396.694 1.314 1.212.905.393-.14.643-.677.626-1.34l1.253-2.682c.126-.268.376-.805.911-.55s.017.663-.108.932c-.251.536-.359 1.468-.61 2.004-.501 1.073-1.002 2.145-1.913 2.695.41.523.82 1.046 1.104 1.837.376-.805.359-1.468.61-2.005.376-.804.609-2.004 1.253-2.681.125-.268.518-.41.785-.282.268.127.143.395.017.664l-1.879 4.022c-.251.536-.518.41-1.179.423.678.65.837 1.709 1.639 2.09.894-1.213.861-2.54 1.487-3.88.125-.269.108-.933.643-.678.536.255.41.523.427 1.187-.108.931-.342 2.131-1.111 3.077-.768.945-.484 1.736.461 2.513.626-1.34.985-2.809 1.612-4.15.125-.267.108-.931.643-.677.535.255.41.523.285.791-.376.805-.484 1.737-.86 2.541-1.412 1.623-.844 3.205.244 4.378.267.127.142.395.142.395.552.918.836 1.71 1.906 2.219.712 1.977 1.69 4.082 3.312 5.51.82 1.045 1.213.904 2.107-.31l1.128-2.413c.125-.268.643-.677.911-.55.535.255.284.791.159 1.06-.502 1.072-1.003 2.145-1.914 2.695-1.429.958-1.002 2.145-.45 3.063.427 1.187.586 2.246.87 3.037.034 1.327-.074 2.259.21 3.05zm-43.422-39.35c-.125.269-.125.269.142.396 1.765 1.823 2.618 4.196 3.864 6.428 1.247 2.232 2.1 4.605 3.079 6.71.427 1.186 1.639 2.091 2.066 3.277.978 2.105 1.815 3.814 3.186 5.778l1.23 1.569c1.656 2.755 3.437 5.241 5.486 7.855 2.459 3.137 5.578 6.26 5.821 10.638.143.395.16 1.059.82 1.046.66-.014.41.522-.108.931-.911.55-1.805 1.764-2.716 2.313-.911.55.034 1.328-.217 1.864-.125.268.552.918.945.778 1.588.1 3.176.2 4.463-1.154-1.622-1.428-1.622-1.428-3.176-.2-.126.267-.393.14-.519.408-.392.141-.518.41-1.053.154-.409-.522-.017-.663.376-.804 1.179-.422 1.128-2.413 2.574-2.709a4.098 4.098 0 0 1 1.128-2.413c.125-.268.25-.536-.017-.664-.535-.254-.41-.522-.285-.79l1.504-3.219c.125-.268.108-.931.643-.677.535.255.285.791.159 1.06-.376.804-.751 1.608-.985 2.808.911-.55 1.429-.959 2.072-1.636.393-.14.519-.409 1.054-.154.409.523.535.255.928.114.518-.41 1.161-1.086 1.947-1.368.393-.14.911-.55 1.053-.154.677.65 1.195.24 1.714-.168.392-.141.785-.282.927.114.143.395-.25.536-.375.804-.911.55-1.822 1.1-2.466 1.777.535.254 1.053-.154 1.179-.423.911-.55 1.554-1.227 2.59-2.045.393-.14.644-.677 1.179-.422.535.254-.251.536-.108.932.392-.141.91-.55 1.303-.691.393-.14.518-.409.376-.805-.301-1.454-.745-3.304-1.046-4.759-.769.946-1.429.96-1.179.423.359-1.468-.853-2.373-1.405-3.291-2.225-4.337-4.701-8.138-7.444-12.066-1.388-2.627-3.17-5.114-4.951-7.6-1.514-2.36-2.777-5.256-4.29-7.615-2.476-3.8-5.453-6.528-9.466-8.438-2.408-1.146-4.782-.965-7.423-.91-1.053.154-1.84.435-2.767.322-1.32.027-2.391-.483-3.553.603-.125.269-.66.014-1.32.027-.393.141-1.196-.24-1.998-.623.82 1.046 1.104 1.837 1.781 2.487.962 1.441 1.924 2.882 3.278 4.182zm-23.96-6.813c-.125.268-.125.268 0 0 .143.395.268.127 0 0l1.128-2.413c.125-.269.501-1.073 1.036-.819.536.255.285.791.034 1.328-.5 1.072-.86 2.54-1.093 3.74l1.002-2.145c.125-.268.518-.409.786-.281.267.127.142.395.017.663-.376.805-.36 1.468-.735 2.273-.627 1.34-.627 1.34.71 1.977.092-1.595.451-3.063 1.345-4.277.126-.268.25-.536.518-.409.268.127.41.523.285.791-.25.536-.627 1.341-.61 2.005-.108.931-.61 2.004-.45 3.063l.376-.804c.25-.537-.051-1.991.877-1.877.803.382.034 1.327-.075 2.259-.108.931-.375.804.57 1.582-.035-1.328 1.002-2.146 1.236-3.346.25-.536.108-.931.643-.677.535.255.677.65.427 1.187-.502 1.072-.878 1.877-1.111 3.077-.376.804-.752 1.609.193 2.386l.142.396.125-.269c.376-.804.36-1.468.735-2.272.126-.268.25-.536.786-.282.535.255.142.396.284.791-.376.805-.358 1.468-.734 2.273-.376.804-.234 1.2.176 1.722.376-.804.216-1.863.985-2.808.125-.269.376-.805.911-.55.535.254.285.79.16 1.059-.502 1.072-.468 2.4-.97 3.472-.25.537-.233 1.2.57 1.582.376-.804.484-1.736.86-2.54.125-.268.25-.537.643-.677.66-.014.41.522.552.918-.376.804-.359 1.468-.734 2.272-.502 1.073-.735 2.273.477 3.178.501-1.073.61-2.005 1.11-3.077.126-.269.251-.537.786-.282.268.127.41.523.285.79-.25.537-.627 1.342-.61 2.005-.359 1.468-.592 2.669.102 3.982l.267.128.126-.269c.233-1.2.342-2.131.843-3.204.125-.268-.017-.664.376-.805.66-.013.802.383.552.919-.108.932-.484 1.736-.467 2.4.159 1.059-1.003 2.145.084 3.318-.125.268.142.395.41.523.393-.141.125-.268-.017-.664-.034-1.327.058-2.923.684-4.263.25-.537.501-1.073 1.304-.691.535.255.017.664-.234 1.2a8.084 8.084 0 0 0-.525 5.322c.376-.804.627-1.34.735-2.272.126-.268.376-.805.911-.55s.142.396.285.791c-.25.536-.109.932-.36 1.468-.358 1.468-1.377 2.95-.416 4.391 0 0-.125.268.142.395l.126-.268.7-3.6c.126-.268.377-.804 1.037-.817.66-.014.017.663.285.79.284.791-.092 1.596-.468 2.4-.108.932-.61 2.005-.057 2.923.125-.268.376-.804.5-1.073-.141-.395-.016-.663.251-.536.268.127.536.255.678.65.142.396.017.664-.109.932-.233 1.2-.86 2.54-.29 4.123l-.126.268.125-.268-.267-.127c.518-.41.376-.805.5-1.073.11-.932.218-1.864.861-2.54.125-.27.108-.933.643-.678.536.255.41.523.427 1.186-.234 1.2-.325 2.796-.559 3.996-.108.931-.091 1.595.319 2.118.518-.409.108-.932.233-1.2.126-.268.251-.536.519-.409.267.127.142.395.284.791-.108.932-.342 2.132-.45 3.064-.234 1.2.05 1.99.995 2.768.092-1.596-1.012-3.432.667-4.927.126-.268.109-.932.911-.55.535.255.285.79.16 1.06-.894 1.213-.735 2.272-.701 3.599.159 1.06.318 2.118-.183 3.19-.126.269.017.665.284.792.501-1.073.61-2.005.843-3.205.126-.268-.017-.663.376-.804.268.127.535.255.678.65-.109.932.176 1.723.067 2.655-.626 1.34-.592 2.668.102 3.981.142.396-.769.946.301 1.455.627-1.34 1.253-2.681 1.612-4.15.25-.536.502-1.072 1.037-.818.66-.013.016.664.159 1.06-.075 2.259-1.737 4.417-.617 6.918l-.25.536c-.125.268-.393.14-.66.013-.41-.522-1.213-.904-1.623-1.427-1.07-.51-1.89-1.555-2.19-3.01-.729-2.64-1.85-5.14-3.096-7.373-1.798-3.15-3.079-6.71-4.751-10.128-1.247-2.232-1.85-5.142-3.489-7.233-1.087-1.173-1.656-2.755-2.35-4.068-2.208-3.674-3.898-7.756-6.499-11.288-.41-.523-.82-1.046-1.087-1.173-1.212-.905-2.425-1.81-3.119-3.123-1.388-2.628-3.437-5.242-5.218-7.729-1.247-2.232-2.317-2.74-3.387-3.25-2.96-2.064-6.028-3.197-9.614-3.92-2.391-.482-4.782-.965-7.39.417-.91.55-1.696.831-2.607 1.38-1.964.705-2.34 1.51-2.415 3.769.518-.41.501-1.073 1.02-1.482-.143-.395.375-.804.518-.409.142.396.017.664-.109.932-.894 1.213-1.52 2.554-2.147 3.895-.626 1.34-.325 2.795-.023 4.25.5-1.073.484-1.736.592-2.668.2-2.527 1.487-3.882 3.434-5.25.393-.14.518-.409.928.114.41.523.017.664-.376.805-1.036.818-1.002 2.145-1.629 3.486-.125.268-.108.932-.233 1.2-.735 2.272-.81 4.532.955 6.355 0 0 .142.395.267.127l-.142-.396c-.301-1.454-.21-3.05.149-4.518s.576-3.331 2.005-4.29c.393-.141.643-.677 1.053-.155.142.396.017.664-.376.805-1.913 2.695-2.239 5.49-1.368 8.527.16 1.059-.108.932-1.036.818.802.382.82 1.045 1.622 1.427-.017-.663-.16-1.059.091-1.595.092-1.595.183-3.19 1.345-4.277.125-.268.5-1.073.91-.55.536.255.017.664-.233 1.2-.877 1.877-1.094 3.74-.776 5.86.752-1.61 1.236-3.346 1.72-5.083.126-.268.377-.804.644-.677.535.255.285.791.16 1.06-.485 1.736-.97 3.472-1.453 5.208-.234 1.2-.342 2.132.995 2.769-.46-2.514.275-4.787.742-7.187.233-1.2 1.02-1.481 1.93-2.031.393-.14.786-.282.928.114.142.395.017.663-.376.804-.518.41-.91.55-.894 1.214-1.361 3.613-1.937 6.945-.122 10.759l.502-1.073c.592-2.668 2.13-4.559 4.202-6.194.393-.141.518-.41 1.053-.155.142.396.017.664-.376.805-.25.536-.643.677-1.161 1.086-1.68 1.495-2.557 3.372-2.899 5.504-.108.932-.359 1.468-.467 2.4-.376.804-.234 1.2.443 1.85l.251-.536c.359-1.469 1.11-3.078 1.737-4.418.25-.537.644-.678.911-.55.535.255.285.79.16 1.059l-.752 1.609c-.752 1.609-1.379 2.95-1.328 4.94l.25-.536c.451-3.063 2.916-4.84 4.58-6.999.124-.268.643-.677.785-.282.535.255.017.664-.108.932-.502 1.073-1.27 2.018-2.307 2.836-2.323 2.172-2.113 5.223-2.17 8.145.375-.804.484-1.736.734-2.272.485-1.737 1.504-3.218 2.256-4.827.25-.537.769-.946 1.304-.69.802.381-.109.931-.234 1.2-1.788 2.426-2.506 5.362-3.224 8.299-.125.268-.376.804.034 1.327.376-.805.484-1.736.593-2.668.325-2.796 1.72-5.082 3.257-6.972.518-.41.894-1.214 1.304-.691.677.65-.233 1.2-.484 1.736a14.415 14.415 0 0 0-3.007 6.436c-.234 1.2.335 2.782-1.362 3.613l.143.396c.284.79.569 1.582 1.12 2.5l.251-.536c-.068-2.655 1.328-4.94 2.455-7.354.25-.537.77-.946 1.162-1.086.125-.269.518-.41.66-.014.268.127.142.395.017.664-.643.677-.894 1.213-1.27 2.018-1.002 2.145-1.88 4.022-2.221 6.154.017.663-.234 1.2.05 1.99 1.39 2.628 3.814 4.438 5.202 7.065.41.523.427 1.187 1.23 1.569.108-.932.216-1.864.2-2.527-.177-1.723.308-3.46 1.06-5.069.25-.536.375-.804.91-.55.535.255.017.664.16 1.06-.61 2.004-.827 3.868-1.044 5.731.017.664.444 1.85-.734 2.273-.393.14-.126.268-.126.268.962 1.441 1.924 2.882 3.53 3.646-.336-2.781.399-5.054 1.526-7.468.126-.268.376-.804.911-.55.268.128.41.523.16 1.06l-.752 1.609c-.877 1.877-.952 4.136-.633 6.254.159 1.06 1.622 1.428 2.174 2.346.267.127.267.127.41.523 0 0-.126.268.267.127l.125-.268c-.46-2.514-.118-4.645 1.01-7.059.25-.536.09-1.595.893-1.213.535.254.16 1.059-.091 1.595-.735 2.273-1.202 4.673-.742 7.186.143.396-.376.805.034 1.328 1.372 1.963 3.01 4.055 5.151 5.073.535.255.928.114 1.179-.422 1.019-1.482 2.306-2.836 3.593-4.19.769-.946 1.68-1.496 2.716-2.314.392-.14.785-.281.928.114.41.523-.251.536-.376.805-.786.281-1.43.959-2.198 1.904.928.114 1.713-.168 2.232-.577 1.161-1.086 2.465-1.777 3.501-2.595.393-.14.911-.55 1.053-.154.143.395.143.395.535.254.393-.14.644-.677 1.179-.422.393-.14.66-.014.803.382.142.395-.251.536-.644.677-.928-.114-1.304.69-1.822 1.1-.125.268-.785.281-.376.804.268.127.945.778 1.196.241.125-.268.376-.804.769-.945.643-.677 1.019-1.482 1.804-1.763.519-.41.786-.282 1.196.24.142.396.284.792-.108.933-1.589-.1-2.073 1.636-3.11 2.454 1.07.509 2.016 1.286 2.693 1.936.41.523.803.383 1.07.51 1.588.1 1.588.1 3-1.522-.534-.255-.785.281-1.303.69-.393.141-.644.677-.786.282-.41-.523-.017-.664.376-.805.518-.408 1.162-1.086.877-1.877l.25-.536c.912-.55 1.02-1.482 1.663-2.159.77-.945 1.538-1.89 2.574-2.708.393-.141.911-.55 1.321-.027.41.522.017.663-.501 1.072-.535-.254-1.304.69-2.056 2.3.786-.282 1.446-.295 1.822-1.1.501-1.072 1.27-2.018 2.306-2.836.519-.409 1.145-1.75 2.232-.577 0 0 .393-.14.518-.409.393-.14.644-.677 1.036-.818.393-.14.644-.677 1.054-.154.535.255.017.664-.109.932-.267-.127-.393.14-.518.409.142.395.393-.141.393-.141.393-.14.91-.55 1.304-.69.393-.142.91-.55 1.053-.155.41.523-.376.804-.769.945-.91.55-1.947 1.368-2.59 2.045 1.337.637 1.07.51 2.106-.308 1.036-.818 2.198-1.904 3.234-2.722.393-.141.911-.55 1.053-.155.41.523-.376.805-.768.945-1.304.691-2.34 1.51-3.11 2.454.268.128.536.255.661-.013 1.304-.69 2.323-2.172 3.502-2.595l.125-.268c-.427-1.186-.193-2.386-1.012-3.432-2.76-4.592-6.557-8.365-9.317-12.957-1.514-2.359-3.546-4.31-4.274-6.95-.284-.791-.569-1.582-1.246-2.232-1.23-1.569-2.066-3.278-2.902-4.987-.854-2.373-1.958-4.21-3.204-6.442-1.798-3.15-3.722-6.032-5.913-9.042-2.191-3.01-4.775-5.878-8.503-6.997-3.069-1.132-6.496-.797-9.672-.997-1.446.295-1.965.704-1.772 3.09-.108.932.695 1.314 1.104 1.837zm53.362 66.369c-.552-.918-.711-1.977-1.388-2.627-1.765-1.823-3.404-3.915-5.168-5.738-1.497-1.695-2.6-3.532-5.26-4.142-1.855-.227-3.318-.596-4.89-.032-1.57.563-2.858 1.918-4.571 2.085.82 1.046 1.639 2.091 1.923 2.882.996 2.769 3.028 4.719 4.416 7.347.285.791 1.087 1.173 1.623 1.427.535.255.643-.677 1.036-.818 2.716-2.313 5.34-3.03 8.676-1.771 1.07.51 2.015 1.287 3.603 1.387zm-1.392-13.118c.803.382 1.48 1.032 2.283 1.414 2.157 1.682 3.278 4.182 4.792 6.542.142.395.284.791.802.382 3.126-1.79 6.252-3.581 10.231-2.998-.41-.523-.945-.778-1.087-1.173-1.639-2.092-2.493-4.465-4.65-6.147-2.567-2.205-6.404-2.392-9.404-.87-1.304.691-1.93 2.032-2.967 2.85zm35.62 2.856c-.285-.79-.695-1.313-1.104-1.836a36.568 36.568 0 0 0-3.671-4.042c-1.087-1.173-2.425-1.81-3.763-2.446-2.14-1.019-4.389-1.105-6.729.403-1.429.96-1.646 2.823-.291 4.123 1.89 1.555 3.779 3.11 5.151 5.074.552.918 1.212.905 2.123.355 2.716-2.313 5.324-3.695 8.284-1.63zm17.454.44c-.41-.523-.552-.918-1.087-1.173-.678-.65-1.355-1.3-1.782-2.486-.426-1.187-.995-2.769-2.726-3.265-.267-.127-.535-.254-.677-.65-2.032-1.95-5.744-2.405-8.084-.897-.125.268-.393.141-.25.536 0 0 .017.664.267.128.126-.268.376-.805.268.127.017.664.034 1.328.443 1.85.695 1.314 1.907 2.219 2.994 3.392.677.65 1.212.905 2.123.355.519-.41 1.446-.296 1.982-.04 2.14 1.018 4.138 1.64 6.529 2.123zm-72.16 15.155c-2.265-.751-4.372-.442-6.604.135-1.053.154-2.089.972-2.59 2.045-.752 1.609-.342 2.132 1.12 2.5 3.32.596 5.802-.517 8.392-2.562 1.555-1.227 1.287-1.354-.318-2.118zm27.925-8.672c.427 1.186 1.23 1.568 2.283 1.414 1.588.1 2.909.073 4.229.046 1.714-.168 2.876-1.254 3.895-2.736.376-.804.108-.931-.427-1.186-2.943-1.4-5.676.249-8.158 1.362-.786.282-.894 1.214-1.822 1.1zm-8.324 5.216l-2.943-1.4c-2.407-1.146-4.781-.965-6.98.94-.392.14-.91.549-.5 1.072.142.396.552.918 1.212.905 2.909.073 5.801-.517 9.211-1.517zm28.034-9.603c1.48 1.032 4.246.71 5.801-.517.518-.41.376-.805-.034-1.328-1.873-.891-4.89-.033-5.767 1.845zm-14.867-12.976c-1.036.818-1.68 1.495-2.716 2.313.677.65 1.48 1.032 1.89 1.555.677.65 1.07.51 1.178-.422.108-.932-.051-1.991-.352-3.446zm36.249 12.007c-1.338-.637-2.801-1.005-4.121-.978-.393.14-.928-.114-.911.55-.126.268.284.79.552.918.535.254 1.07.51 1.856.228.518-.41 1.571-.564 2.624-.718zm-57.337-4.67c1.748 1.16 2.232-.577 3.143-1.127.393-.14.25-.536.108-.931-.142-.396-.535-.255-.66.013-.911.55-1.68 1.495-2.59 2.045zm22.419-1.787c.853 2.373 2.123.355 3.051.469-.82-1.046-2.249-.087-3.051-.469zm12.001-6.088c.661-.014.82 1.045 1.196.24.251-.536.769-.945.894-1.213.125-.268.518-.409.251-.536-.143-.396-.536-.255-.661.013-.643.678-1.161 1.087-1.68 1.496zm1.48 1.032l.803.382c.535.254.786-.282 1.036-.818.126-.268-.017-.664-.284-.791-.535-.255-.661.013-.786.281.142.396-.25.537-.769.946zm-16.919-.185c-.643.677-1.554 1.227-2.197 1.904l.267.127c.644-.677 1.554-1.227 1.93-2.031zM72.752 94c1.32-.027 1.697-.831 2.073-1.636-.644.677-1.162 1.086-2.073 1.636zm2.59-2.045s-.125.268 0 0l-.125.268.126-.268c.142.396-.126.268 0 0zM115.738 48.9s-.126.268 0 0c-.126.268-.126.268 0 0-.126.268 0 0 0 0zm-84.578-.261s-.393.14 0 0c-.393.14-.126.268 0 0-.126.268-.126.268 0 0-.126.268-.126.268 0 0zM49.35 83.19s-.142-.395 0 0c-.142-.395-.267-.127 0 0-.267-.127-.267-.127 0 0z"/>
        <path d="M119.082 84.207c.16 1.056.589 2.238.354 3.434-.11.928-.504 1.068-1.185.42-.681-.648-1.218-.902-1.899-1.55.916-.547 1.689-1.489 2.73-2.303z"/>
        <path d="M150.651 84.772c.646-.675 1.434-.956 2.08-1.631.285.789 1.359 1.297.319 2.112-.126.268.142.395.142.395.663-.013.806.381.286.789-.52.407-.789.28-.931-.114-.411-.522-.822-1.043-1.896-1.551.269.127 0 0 0 0z"/>
        <path d="M97.937 91.355c.917-.548 1.69-1.489 2.607-2.036.126-.267.522-.407.665-.013.143.394.412.52-.11.928-.916.547-1.404 2.276-3.162 1.12z"/>
        <path d="M120.351 89.755c1.196.241 2.358-.844 3.053.469-.929-.114-2.199 1.903-3.053-.469z"/>
        <path d="M132.429 83.8c.523-.406 1.171-1.08 1.693-1.486.126-.267.522-.407.666-.013.269.127.143.393-.253.533-.252.534-.774.94-.901 1.207-.378.8-.935-.114-1.205-.24z"/>
        <path d="M132.938 82.059c-.252.533-.774.94-.901 1.207-.378.8-.918.546-1.457.292.648-.673 1.027-1.473 2.358-1.5-.269-.126 0 0 0 0z"/>
        <path d="M133.893 84.837c.395-.14.52-.407.915-.547.394-.14.377-.802.789-.28.269.127.412.521.286.788s-.378.802-1.041.815c-.143-.394-.412-.522-.949-.776z"/>
        <path d="M116.995 84.498c-.506 1.066-1.3 1.345-1.951 2.018l-.27-.126c.777-.94 1.3-1.346 2.221-1.892z"/>
        <path d="M72.49 93.768c.92-.546 1.443-.953 2.092-1.626-.38.8-.759 1.6-2.093 1.626z"/>
        <path d="M93.415 88.483c-.38.8-.904 1.206-1.699 1.485.65-.673 1.03-1.472 1.699-1.485z"/>
        <path d="M69.453 61.454c-.125.267.412.521.018.661 0 0-.269-.127-.412-.522.269.128.269.128.394-.14z"/>
        <path d="M93.417 88.49c-.144-.393.126-.266.252-.533.144.394.144.394-.252.533z"/>
        <path d="M94.461 87.683s-.253.533-.396.14c.127-.267.127-.267.396-.14.126-.267 0 0 0 0z"/>
        <path d="M75.103 91.748c-.127.266.146.394 0 0l-.127.266.127-.266c-.127.266 0 0 0 0z"/>
        <path d="M54.39 38.404s-.125.268 0 0c-.393.141-.393.141 0 0-.267-.127-.267-.127 0 0z"/>
        <path d="M61.635 47.821l-.126.266s-.273-.127.126-.266c-.272-.127 0 0 0 0z"/>
        <path d="M72.03 66.966l-.128.268c-.394.142-.267-.126.127-.268-.394.142 0 0 0 0z"/>
        <path d="M132.672 81.941c.126-.267.126-.267 0 0 .394-.14.268.127 0 0 .268.127 0 0 0 0z"/>
        <path d="M114.419 46.518l-.127.268c-.267-.126-.267-.126.127-.268-.394.142-.394.142 0 0z"/>
        <path d="M67.708 58.968c.142.395.142.395 0 0 .142.395-.126.268 0 0-.126.268-.126.268 0 0z"/>
        <path d="M150.798 85.151c-.268-.126-.268-.126 0 0-.142-.394-.142-.394 0 0-.142-.394.126-.267 0 0z"/>
        <path d="M31.544 48.32c-.126.265-.126.265 0 0-.126.265-.126.265 0 0-.126.265-.398.138 0 0-.398.138 0 0 0 0z"/>
        <path d="M49.258 82.822c-.269-.128-.269-.128 0 0-.269-.128-.144-.395 0 0-.144-.395 0 0 0 0z"/>
        <path d="M127.456 65.632l-.127.267c-.394.143-.267-.125.127-.267-.394.142-.394.142 0 0z"/>
        <path d="M56.876 90.78s-.126.268 0 0c-.394.141-.394.141 0 0-.268-.126-.268-.126 0 0z"/>
        <path d="M128.335 83.444s-.124.266 0 0c-.269-.128-.269-.128 0 0z"/>
        <path d="M59.655 90.493c.362-1.46 1.391-2.934 1.754-4.394.126-.266.11-.926.65-.673s.413.52.287.787c-.38.8-.363 1.46-.742 2.26-.76 1.6-.852 3.186-.674 4.9.143.392.43 1.18-.236 1.192-.794.28-.414-.52-.558-.913-.16-1.053-.194-2.373-1.274-2.88-.27-.126-.414-.52-.558-.913-.574-1.573 1.07-5.04 2.514-5.993.396-.14.523-.406 1.063-.153.144.393.017.66-.11.926-1.552 1.88-2.04 3.607-2.116 5.854z"/>
        <path d="M52.157 75.403c.508-1.065 1.017-2.13 1.94-2.676.4-.14.925-.547 1.07-.154.416.519.017.659-.237 1.191-1.941 2.677-2.669 5.592-2.854 8.76.145.393.162 1.052-.508 1.065-.67.014-.96-.77-.705-1.303.202-2.51.277-4.752 1.294-6.883z"/>
        <path d="M47.509 72.163c1.017-2.13 2.467-3.082 3.375-4.287.127-.267.398-.14.67-.014s.416.518.29.785c-.382.798-.908 1.205-1.29 2.003-1.687 2.144-2.56 4.667-2.49 7.302-.127.266.017.659-.254.533-.4.14-.67.013-.815-.38-.416-.518-.307-1.443-.052-1.975-.18-1.71.456-3.042.566-3.967z"/>
        <path d="M49.131 62.743c.418.518.29.784-.237 1.19-1.439 1.61-2.331 3.473-3.352 5.602-.51 1.064-.747 2.254-.985 3.445-.127.266.018.658-.655.672-.273-.126-.418-.518-.29-.784.439-3.697 1.824-7.282 4.718-9.845.128-.266.528-.406.801-.28z"/>
        <path d="M46.687 69.79c.381-.8.364-1.458 1.29-2.004.4-.14.527-.406.672-.014.272.126.145.392.017.658-1.545 2.536-2.419 5.058-2.748 7.832-.127.266.018.658-.654.672-.272-.126-.544-.252-.417-.518-.162-1.051-.053-1.976.33-2.774.636-1.331.873-2.522 1.51-3.853z"/>
        <path d="M67.46 91.959c-.652.673-.889 1.865-1.811 2.411-.525.407-.922.547-.905 1.206-.127.266-.254.533-.652.673-.27-.127-.414-.52-.288-.786.237-1.192.617-1.991.854-3.183l.634-1.333.254-.532c.397-.14.541.252.415.519.017.66.415.52.668-.014.127-.266.11-.925.652-.673.685.646.703 1.305.178 1.712z"/>
        <path d="M56.458 80.759c.399-.14.509-1.065 1.035-1.472.399-.14.526-.406.67-.013.273.126.146.392.018.658-1.29 2.004-2.307 4.134-2.11 6.502l-.254.533c-.4.14-.544-.253-.417-.519-.434-1.177-.07-2.635.168-3.826l.89-1.863z"/>
        <path d="M65.294 88.293c-.763 1.597-2.069 2.942-2.017 4.919-.127.266-.127.266-.525.406-.272-.126-.544-.252-.416-.519-.307-1.444.057-2.901.837-3.84.254-.533.907-1.205 1.433-1.612.127-.266.653-.672 1.196-.42.543.253.018.66-.11.925-.271-.126-.398.14-.398.14z"/>
        <path d="M79.38 95.14c-.27-.127-.414-.52-.288-.787.777-.94 1.824-1.753 2.6-2.693.127-.266.397-.14.668-.013.27.126.143.393.017.66-.777.94-1.554 1.88-2.474 2.426-.253.533-.523.406-.523.406z"/>
        <path d="M99.815 63.057c.036 1.317-.474 2.38-.857 3.179-.62 1.988-1.513 3.85-2.406 5.713-.127.266-.382.798-.928.547-.545-.252-.017-.659-.163-1.05.748-2.255 1.768-4.383 2.516-6.638.382-.798.91-1.204 1.838-1.75z"/>
        <path d="M97.877 75.245c.638-1.33 1.003-2.787 1.768-4.384.383-.798.638-1.33 1.566-1.876.127-.266.527-.406.8-.28s.145.392.018.658c-1.438 1.61-1.931 3.333-2.55 5.321-.256.532-.51 1.064-.91 1.204-.401.14-.401.14-.674.015-.673.014-.545-.252-.018-.659z"/>
        <path d="M92.932 59.713c-.365 1.457-1.129 3.053-1.493 4.51-.128.266-.11.925-.783.939-.544-.252-.017-.659-.162-1.05.33-2.774 1.349-4.903 2.495-7.298.128-.266.382-.798.8-.28.545.252.417.518.162 1.05l-1.019 2.13z"/>
        <path d="M104.132 78.585l-1.532 3.192c-.127.266-.383.798-.929.546-.546-.251-.017-.658.11-.924.621-1.988 1.369-4.242 2.808-5.852.127-.266.51-1.064.929-.546.546.251.017.657-.238 1.19l-1.148 2.394z"/>
        <path d="M101.787 78.75c-.127.266-.382.798-.925.546-.271-.127-.017-.66-.161-1.052.618-1.99 1.363-4.247 1.709-6.363.254-.533.381-.8.924-.546.544.252.018.658.162 1.05-.346 2.117-1.091 4.374-1.709 6.364z"/>
        <path d="M95.574 67.869c-.255.532-.382.798-.654.672s-.544-.252-.417-.518c.347-2.116.966-4.105 1.984-6.235.127-.266.654-.672.926-.546.544.252.018.658-.11.925-.619 1.99-1.237 3.978-1.73 5.702z"/>
        <path d="M84.325 47.016c-.51 1.064-1.147 2.395-1.112 3.711-.127.266.018.659-.382.799s-.417-.519-.29-.785c.075-2.24.966-4.103 2.13-5.84.128-.267.528-.407.8-.28.273.126.145.392.018.658-.655.672-.91 1.204-1.164 1.737z"/>
        <path d="M93.837 66.041c-.127.267-.254.533-.653.673-.271-.126-.415-.519-.415-.519.346-2.117.692-4.233 1.582-6.097.127-.267.254-.533.525-.407.543.253.29.785.162 1.052-.508 1.065-.745 2.256-.982 3.448.018.659.035 1.318-.219 1.85z"/>
        <path d="M88.397 54.883c-.383.798-.765 1.596-1.547 2.535-.128.266-.255.532-.528.406-.272-.126-.145-.392-.017-.658.492-1.723 1.53-3.194 1.894-4.65.127-.266.4-.14.527-.407.273.127.418.519.29.785.018.658-.637 1.33-.62 1.989z"/>
        <path d="M85.911 49.113c.128-.267.527-.407.654-.673l.4-.14c.272.126.145.392.145.392-.62 1.99-1.383 3.587-2.002 5.576-.128.266-.128.266-.527.406-.272-.126-.545-.252-.417-.518.11-.925.492-1.723.474-2.382.51-1.064 1.163-1.737 1.273-2.661z"/>
        <path d="M77.977 45.257c.364-1.457.873-2.522 1.509-3.853.127-.267.381-.8.78-.94.4-.14.4-.14.671-.013.272.126.145.392.017.659-.635 1.33-1.398 2.928-1.763 4.386-.653.672-.942-.113-1.214-.239z"/>
        <path d="M106.538 81.721c-.782.939-1.291 2.003-1.801 3.068-.127.266-.382.798-.654.672-.545-.252-.417-.518-.163-1.05l1.656-3.46c.255-.532.51-1.065 1.054-.813.69.645.163 1.051-.092 1.583z"/>
        <path d="M80.844 44.03c.382-.799.636-1.331 1.29-2.004.399-.14.526-.406.67-.014.272.127.145.393.018.66-.908 1.204-1.816 2.409-1.636 4.119-.128.266-.255.532-.527.406-.399.14-.543-.252-.416-.519-.29-.784.22-1.85.601-2.648z"/>
        <path d="M90.407 57.501l-.892 1.863c-.128.266-.255.532-.528.406-.273-.127-.145-.393-.018-.659.237-1.19.874-2.52 1.512-3.85.127-.267.254-.533.527-.407.273.126.145.392.29.785.019.658-.636 1.33-.891 1.862z"/>
        <path d="M103.409 52.34c.765-1.597 1.257-3.32 2.149-5.183.127-.266.382-.798.927-.546.544.252.29.784.162 1.05-.637 1.33-1.001 2.787-2.038 4.258-.255.532-.655.673-1.2.42z"/>
        <path d="M107.114 52.148l-.89 1.863c-.127.266-.254.532-.798.28-.272-.126-.145-.392-.29-.785.636-1.33 1.001-2.788 1.637-4.12.127-.266.381-.798.925-.546.272.127.289.785.162 1.051-.11.925-.364 1.458-.746 2.257z"/>
        <path d="M122.624 79.023l-.382.798c-.127.266-.382.798-.799.28-.545-.253-.018-.659.109-.925.509-1.064.746-2.255 1.128-3.053.255-.533.509-1.065.782-.939.545.253.29.785.035 1.317-.381.799-.763 1.597-.873 2.522z"/>
        <path d="M103.187 44.667c-.38.8-.76 1.599-1.412 2.271-.127.267-.253.533-.795.28-.271-.126-.144-.393-.288-.785.507-1.066.617-1.992 1.124-3.058.254-.533.651-.673.922-.546.542.253.288.786.035 1.319.541.252.414.519.414.519z"/>
        <path d="M120.826 84.732l1.913-3.99c.127-.267.255-.533.527-.407.273.126.419.518.291.784-.637 1.33-1.147 2.395-2.058 3.599.146.392-.273-.126-.673.014z"/>
        <path d="M114.591 69.889c.364-1.458.855-3.182 1.219-4.64.127-.266.254-.532.653-.672.271.126.416.519.288.785-.363 1.458-.727 2.915-1.363 4.247.017.659-.526.406-.797.28z"/>
        <path d="M114.017 65.663c-.127.266-.255.533-.653.673-.127.266-.399.14-.399.14-.272-.126-.272-.126-.144-.393.364-1.457.872-2.523 1.236-3.98.127-.266.653-.673.924-.547.544.253.018.66-.109.926-.237 1.191-.347 2.116-.855 3.181z"/>
        <path d="M119.01 68.773c.541.253.685.645.829 1.038-.363 1.46-.87 2.525-.963 4.11-.126.267.018.66-.651.673-.271-.126-.415-.52-.288-.786-.178-1.711.583-3.31 1.073-5.035z"/>
        <path d="M117.27 66.286c.541.253.956.772.703 1.305-.237 1.192-.617 1.992-.854 3.184-.126.266-.253.533-.524.406-.542-.253-.144-.393-.288-.785.236-1.193.6-2.651.963-4.11z"/>
        <path d="M140.009 85.81c-.127.266-.11.924-.654.672-.545-.252-.29-.784-.163-1.05.22-1.85.984-3.446 1.876-5.31.127-.265.382-.798.926-.545.545.252.018.658-.109.924-.492 1.723-.984 3.446-1.876 5.309z"/>
        <path d="M137.15 78.846c-.526.406-.491 1.723-1.306 1.344-.815-.378-.035-1.317.219-1.85.509-1.064.746-2.256.983-3.447l.381-.799c.128-.266.526-.406.798-.28.272.127.145.393.018.66-.237 1.19-.33 2.774-1.093 4.371z"/>
        <path d="M123.72 61.198c.092-1.584 1.127-3.055 1.491-4.512.127-.267.399-.14.399-.14.272.126.544.252.416.518-.364 1.458-.728 2.915-1.635 4.12-.128.266-.399.14-.671.014z"/>
    </g>
</symbol><symbol id="svg-dishes-thorns" viewBox="0 0 198 150">
    <path d="M10.755 139.813c-1.93 0-3.585-.275-5.24-.551a5.33 5.33 0 0 1-2.482-1.379c-.827-.827-.827-1.93-.275-3.309 1.103-2.206 2.206-4.137 3.585-6.067-1.655-.276-2.758-.552-4.137-.827-1.103-.276-1.654-1.103-1.379-2.206.552-2.207.828-4.413 1.93-6.343.552-.827.828-1.655 1.38-2.482.551-1.103 1.103-2.206 2.206-2.758.827-.551.827-.827 0-1.378-1.103-.552-1.93-1.379-3.034-1.931-.827-.551-.827-1.103-.551-1.93.551-1.103.827-2.482 1.93-3.861-1.103 0-1.93 0-2.758-.276-1.378-.551-1.93-.827-1.93-2.206.276-3.033.276-6.342 1.379-9.376.827-1.93 1.654-4.136 2.482-6.067 1.103-1.93 2.757-3.033 4.412-4.412 2.758-2.758 6.343-4.136 10.203-4.688 1.93-.552 4.137-.552 6.343 0 3.033.551 6.343.827 9.376 1.655 1.103.275 2.206.551 3.585.827.551.276.827-.276 1.103-.552 1.379-2.757 4.136-4.963 6.067-7.445.551-.828 1.379-1.655 1.654-2.482.552-1.379 1.655-2.206 2.482-3.31.552-.55 1.103-1.103 1.655-1.93a6.443 6.443 0 0 1 1.93-1.93c1.38-1.379 3.31-1.655 4.688-3.31 2.206-2.481 5.516-3.584 7.997-5.515 4.137-2.757 8.55-5.515 12.686-8.548 1.93-1.38 4.136-3.034 6.067-4.413 3.033-2.206 6.618-3.585 10.203-4.688 3.31-.827 6.343-1.654 9.652-2.206 7.17-.827 13.788-3.309 20.682-4.412 3.861-.552 7.722-1.103 11.307-1.379 2.206-.276 4.412-.827 6.894-1.379.827-.275.276-1.103.827-1.378.552-.276.827.827 1.379.275.551-.827 1.379-1.379 1.93-2.206 1.103-1.103 1.931-2.482 3.309-3.31 1.655-.826 3.034-2.205 4.137-3.584a8.405 8.405 0 0 1 2.206-2.206c3.309-2.206 5.24-5.515 7.17-8.825C165.184 3.31 167.39 1.93 169.32 0h.828c3.309 1.379 6.894 1.655 10.203 3.033 1.655.828 2.758 1.655 3.861 3.31 1.103 1.654 2.482 3.033 3.86 4.412 2.482 2.206 4.413 4.688 6.067 7.446.552 1.103 1.379 1.93 2.206 3.033 1.103 1.93 1.379 4.136 1.655 6.067 0 .827-.552 1.654-.827 2.206-.276.827-1.103 1.379-1.379 2.206 0 .276-.276.276-.552.276-1.93 0-3.033 1.103-4.136 2.482l-.552.551c-3.309 1.655-5.791 4.413-8.824 6.619-4.964 3.585-9.376 7.997-14.34 11.858-2.758 2.206-5.24 4.412-7.997 6.618-1.103.827-1.931 2.482-2.758 3.585-2.206 3.585-4.688 6.894-7.446 9.652-1.93 1.93-4.412 3.585-6.618 5.24-3.309 2.205-6.894 3.584-10.755 4.412-1.93.551-3.585 1.378-5.239 2.206-3.034 1.379-6.343 1.654-9.652 2.482-5.516 1.378-11.031 3.309-16.822 4.963-1.93.552-3.86 1.655-5.515 2.758-.552.276-1.38.552-1.93.827-2.758.828-4.964 2.758-7.17 4.413l-5.792 4.136-.827.827c-.827.552-1.379 1.103-2.482 1.379-1.379.552-3.033 1.103-4.136 1.931-1.103.551-1.93 1.103-3.034 1.654-.275 0-.551 0-.551.276-3.585 2.758-8.273 4.136-11.858 6.894-1.103.827-2.482 1.103-3.585 1.93-.552.552-1.103 1.104-1.103 1.931 0 4.136-1.103 7.721-2.758 11.306-1.103 2.482-2.206 4.964-4.136 6.894-1.93 2.206-3.861 4.137-6.619 5.24-1.93.827-3.86 2.206-6.067 2.758-4.412 1.103-8.824 1.654-13.236 1.103-2.206-.276-4.137-.552-6.067-1.379-1.38-.552-2.206-1.379-3.31-2.206-.551-.552-.275-1.379-.275-1.931.276-1.103.827-2.206 1.103-3.585zm94.312-50.19s-.276 0-.276.277l.276-.276c2.758-.276 5.239-1.655 7.721-2.206 3.585-.828 7.446-1.655 11.031-2.482 1.103-.276 1.93-.552 2.758-1.379-2.482.276-4.964.827-7.446 1.379-4.688 1.103-9.376 2.758-14.064 4.136v.552zm-34.747.552c0-.275 0-.275 0 0-3.309 1.38-6.342 3.585-9.376 5.24-1.654.827-3.309 1.93-4.964 2.758-3.309 1.654-6.066 3.86-9.375 5.515-1.93.827-3.31 2.482-5.516 3.033-.551.276-.827 0-1.379-.275-1.654-.828-3.309-1.931-4.964-2.206-2.206-.276-4.136-.552-6.342-.276-3.31.276-6.343.827-9.376 2.206-4.137 1.93-7.722 4.688-11.03 7.997-.828.552-1.655 1.103-2.207 1.93-1.655 2.758-3.033 5.792-3.585 9.101 0 .551 0 .827.552.827 1.378.552 2.757.827 4.412.827 1.103 0 1.655.828.827 1.655-1.379 2.206-3.033 4.136-3.86 6.618-.552 1.379-.552 1.931.827 2.482.551.276 1.103.552 1.654.552 1.655.276 3.31.276 4.964.276 1.103 0 1.379.551.827 1.378-.827 1.103-.827 2.482-1.378 3.861-.276.276 0 .827.275 1.103.828.552 1.655 1.103 2.482 1.379 1.103.552 2.482.552 3.585.827 3.861.828 7.446.552 11.307 0 3.86-.551 6.894-2.482 10.203-4.136.827-.552 1.655-.828 2.482-1.655 2.482-2.482 4.688-5.239 6.067-8.549 1.654-3.585 3.033-7.445 3.033-11.306 0-.551 0-.827-.551-1.103-.276 0-.552-.276-.552-.552 0-.551.276-.551.552-.827.827-.276 1.654-.551 2.206-.827 2.757-1.655 5.24-3.309 8.273-4.688l9.1-4.964c2.758-1.379 5.24-2.758 7.722-4.412 1.378-.828 2.757-2.206 4.688-3.309h-.828c-3.86 1.378-7.721 1.103-11.582.827-1.93-.276-3.31-1.655-3.31-3.585 0-1.379.552-2.758 1.38-3.86 1.103-1.38 2.206-2.483 2.757-3.862zm116.925-55.153v.276s.276 0 0-.276c.552 0 1.103 0 .827-.551-.551-1.103 0-.827.552-.827.827 0 1.379 0 .827-1.104v-.275c.828-1.103.828-2.207.828-3.31.275-1.103.275-1.93.551-3.033 0-.552.276-1.103.827-.827.828 0 .552.551.552 1.103 0 .551 0 .827-.276 1.379-.276 1.103-.551 2.481-.551 3.86.827-.827 1.93-1.103 1.93-2.206 0-1.379.552-2.482.552-3.86 0-.552.275-1.104 1.103-.828 1.103 0 .827.552.827.828-.276 1.103-.276 2.206-.552 3.309 1.655-.552 1.655-1.38 1.379-3.31-.551-3.033-2.206-5.24-3.861-7.445-.827-1.103-1.378-2.482-2.206-3.31-2.206-2.206-4.688-4.412-6.618-6.894-1.655-1.93-3.309-3.309-5.515-3.86-2.207-.828-4.688-1.103-6.895-1.93-1.103-.276-1.654 0-1.93.827s-.551 1.103-1.103 1.378c-1.103.552-1.655 1.38-2.482 2.482-1.93 3.034-4.136 6.067-6.342 8.825-1.931 2.206-4.137 4.136-6.343 5.791a31.73 31.73 0 0 0-4.688 3.86l-.276.276c-.551 1.38-1.654 1.93-2.758 2.758-1.654 1.103-3.585 1.103-5.239 1.379-3.861.827-7.722 1.655-11.582 1.93-3.585.276-6.894.828-10.204 1.93-2.206.828-4.688 1.38-6.894 1.38-2.206 0-4.136.551-6.342.827l-4.137.827c-2.206.276-4.688.552-6.618 1.93-2.206 1.38-4.688 1.655-6.894 3.585-1.655 1.38-3.585 2.758-5.791 3.861-.552.276-.828.552-1.38.828-.827 1.103-1.93 1.654-3.308 2.206-1.655.551-2.758 1.654-3.861 2.757-.276.276-.276.552-.828.552-3.033 1.654-5.515 3.86-8.548 5.24-2.758 1.378-4.688 3.584-7.446 5.239-1.655.827-2.482 2.482-3.86 3.585-.828.551-1.38 1.103-1.655 1.93-1.103 2.482-3.31 4.137-5.24 6.067-1.379 1.655-3.309 3.31-4.688 5.515 7.997-2.206 15.995-3.309 22.337-8.548 0 0-.276-.276-.551-.276-.276-.276-.552-.552-.276-1.103.276-.276.551-.276 1.103 0 .276 0 .552.276.552.276.827 1.103 2.206.827 3.033.275 3.86-1.93 8.273-3.033 12.134-5.24 1.103-.55 1.378-.826.275-1.654-.551-.276-1.379-.551-.827-1.379.552-.827 1.103 0 1.93 0 .276 0 .276 0 .552.276.827.552 1.655.552 2.482.552 2.206 0 4.412-.828 6.343-1.93 2.481-1.104 4.963-2.483 7.72-2.758-.826-.276-1.102-1.103-1.93-1.38-.275 0-.827-.275-.827-.827.276-.551.828-.551 1.38-.275 2.481 1.103 4.411 2.757 5.514 5.24.276.827.276 1.378.276 2.205-.551 1.655-1.103 3.585-1.93 5.24-.276.552-.552.827-.828 1.103-1.93 1.655-4.412 2.482-6.066 4.688 0 .276-.276.276-.552.276-3.585 2.482-6.618 5.515-10.203 7.721-1.93 1.103-3.585 2.758-5.516 3.861-1.93 1.103-3.309 2.482-4.412 4.136 0 0-.276.276 0 .276 0 .276.276 0 .276 0 1.379-1.379 3.033-1.654 4.964-2.206a1.758 1.758 0 0 1 1.654 0c2.482 1.379 4.413 3.31 4.964 6.343.276.827 0 1.379-.827 1.93-.552.276-.827.552-1.379.827-2.206 1.38-4.412 2.482-6.894 3.31 2.482 0 4.964-.828 7.446-1.38 3.309-.827 6.342-3.033 9.651-4.136 1.103-.551 2.482-1.103 3.585-1.93 3.31-1.93 6.067-4.412 10.204-5.24 3.033-.551 6.067-1.93 9.1-2.757 3.861-1.103 7.721-2.206 11.858-2.758 3.033-.276 5.791-.276 8.824-1.379 4.964-1.93 9.101-4.688 12.961-8.273 3.861-3.585 6.343-7.997 9.376-12.41.828-1.102 1.104-3.033 3.034-2.757l.276-.276c.551-2.206.827-4.412 1.654-6.618 0-.276-.276-.827.276-.827s.552.551.552.827c0 1.654-.552 3.31-.828 4.964 1.103-.828 1.931-1.38 2.206-3.034 0-2.206.552-4.412.552-6.618 0-.552.276-.827.827-.827.552 0 .828.551.828 1.103-.276 2.206-.276 4.412-.828 6.618v.276h.276c.827-.828 2.206-1.379 2.206-2.758.276-2.206.552-4.688 1.103-6.894 0-.551.276-.827.552-1.103.275 0 .551 0 .827.276.276.551.276.827 0 1.379-.552 1.93-.827 3.86-1.103 5.79 0 0 .276 0 .276.276.827-.551 1.654-1.103 1.93-2.481a43.935 43.935 0 0 1 1.655-8.273c0-.552.275-1.104.827-.828.551 0 .551.552.276 1.103-.276.276-.276.828-.276 1.103-.276 1.93-.827 4.137-1.103 6.343a6.515 6.515 0 0 0 2.482-2.206c.276-.276.827-.552.827-1.379.276-1.103.276-2.206.552-3.31.275-1.654.551-3.584.827-5.239 0-.551.276-1.103.827-.827.552.276.552.827.552 1.103-.828 2.206-.828 4.688-1.379 7.17-.276.276-.276.276 0 .551 0 .276.276 0 .276-.275.551-.276 1.103-.828 1.654-1.103 1.103-.552 1.655-1.655 1.655-2.758s.276-2.482.551-3.585c.276-.827.552-1.379.276-2.206 0-.827 0-1.379.552-1.93.275-.276.551-.276.551 0 .552.551.552 1.378.276 1.93-.276 1.93-.552 3.585-1.103 5.515 0 .276-.276.276 0 .552h.276c.551-.552 1.103-.828 1.93-1.38.276-.275.552-.275.552-.826.275-2.482.551-5.24 1.103-7.722 0-.551.275-1.103.827-1.103.551 0 .551.827.551 1.379-.827 1.379-1.378 3.31-1.93 5.515zM21.51 78.87c-3.034-.276-5.791.552-8.273 1.93-2.758 1.38-4.964 3.585-7.17 5.516l-.276.276c-2.482 4.136-4.136 8.548-4.136 13.512 0 3.033 0 3.033 2.757 3.033 1.655 0 2.206 1.104 1.38 2.482-.552.828-.828 1.931-1.38 2.758-.276.552 0 .552.276 1.103.827 1.103 2.482 1.379 3.585 2.206.276.276.552 0 .552-.276 2.481-3.033 6.066-4.963 9.651-6.618 5.791-2.482 11.582-3.033 17.925-1.93 1.103.275 2.758 0 3.585.827 1.103.827 1.103.276 1.655-.552.275-.275.275-.551.275-1.103 0-2.206 1.655-3.309 3.31-4.136 3.309-1.655 6.618-3.034 9.927-4.412 3.034-1.103 6.343-1.93 9.1-3.585 1.103-.828 1.93-1.655 3.31-2.206 2.757-1.103 5.24-2.207 7.721-3.585 4.137-2.206 7.997-4.964 11.858-7.722 1.655-1.379 2.758-3.309 4.688-4.136 1.655-.828 2.758-2.206 4.412-3.034 1.38-.551 2.758-1.654 3.31-3.309.275-.827.827-1.93 1.103-2.758.551-1.378 0-3.584-1.103-4.688 0 0-.276-.275-.552-.275-1.93.275-3.86.827-5.24 1.93-1.93 1.379-3.86 2.482-6.066 3.585-3.585 1.93-7.446 3.31-11.307 4.412-3.309 1.103-6.342 2.758-9.652 3.585-2.481.828-4.963 1.93-7.17 3.034-2.206 1.103-4.136 1.93-6.342 2.481-3.585.828-6.894 1.93-10.48 3.034-.827.276-1.378.551-2.205.827-1.38 1.103-2.482 1.103-3.861-.276l-.276-.275c-4.964-.276-9.928-1.103-14.891-1.655zm49.362 21.51c.827.551.827-.552 1.379-.828 3.585-.827 6.618-2.481 9.651-4.412.276-.275.552-.551.276-1.103-.275-1.93-1.654-3.309-3.033-4.412-.827-.827-2.206-1.103-3.034-.552-1.378 1.103-2.757 2.206-4.412 3.31-1.379 1.103-2.206 2.757-3.585 3.585-.551.551-.827 1.654-.551 2.481.275.828.827 1.38 1.379 1.38.551.275 1.103.275 1.93.551zm-26.75 2.482c2.207-2.206 4.689-3.034 6.895-4.413h-.552c-2.206.552-3.86 2.207-6.067 2.758-.551.276-.275.827-.275 1.655zm11.858-7.17c-1.103.276-1.93.551-2.481 1.654.827-.551 1.654-.827 2.481-1.654zm113.892-45.777c0-.276 0-.276 0 0zM51.568 98.448c-.276 0-.276-.275 0 0-.276 0-.276 0 0 0z"/>
</symbol><symbol id="svg-header-svg" viewBox="0 0 14 14">
    <path d="M12.877 9.19a7.948 7.948 0 0 1-2.497-.398c-.39-.134-.87-.011-1.11.234l-1.574 1.188c-1.825-.974-2.95-2.099-3.91-3.91L4.938 4.77c.3-.299.407-.736.278-1.146a7.96 7.96 0 0 1-.4-2.5C4.818.503 4.315 0 3.695 0h-2.57C.503 0 0 .504 0 1.123 0 8.223 5.776 14 12.877 14c.619 0 1.123-.504 1.123-1.123v-2.564c0-.62-.504-1.124-1.123-1.124z"/>
</symbol><symbol id="svg-norm-svg" viewBox="0 0 12 14">
    <path d="M11.265 3.82a.11.11 0 0 0-.109-.101H9.734a.547.547 0 0 1-.547-.547A3.175 3.175 0 0 0 6.016 0a3.175 3.175 0 0 0-3.172 3.172.547.547 0 0 1-.547.547H.875a.11.11 0 0 0-.11.1L0 13.883A.11.11 0 0 0 .11 14h11.812a.11.11 0 0 0 .109-.118L11.265 3.82zM3.72 3.172A2.3 2.3 0 0 1 6.016.875a2.3 2.3 0 0 1 2.296 2.297.547.547 0 0 1-.546.547h-3.5a.547.547 0 0 1-.547-.547zm-.438 3.61c-.603 0-1.094-.491-1.094-1.095 0-.093.01-.184.03-.272.108-.47.627-.209.627.272a.438.438 0 0 0 .875 0c0-.48.518-.74.626-.272.02.088.03.18.03.272 0 .604-.49 1.094-1.094 1.094zm5.469 0c-.603 0-1.094-.491-1.094-1.095 0-.093.01-.184.03-.272.107-.47.626-.209.626.272a.438.438 0 0 0 .875 0c0-.48.519-.74.626-.272.02.088.03.18.03.272 0 .604-.49 1.094-1.093 1.094z"/>
</symbol></svg>