<?xml version="1.0" encoding="UTF-8"?><!DOCTYPE svg PUBLIC "-//W3C//DTD SVG 1.1//EN" "http://www.w3.org/Graphics/SVG/1.1/DTD/svg11.dtd"><svg xmlns="http://www.w3.org/2000/svg"><symbol id="svg-aside-bed" viewBox="0 0 23 17">
    <path d="M20.427 8.415h-.387v-4.48A3.471 3.471 0 0 0 16.579.462H6.044a3.471 3.471 0 0 0-3.46 3.473v4.48h-.388A1.962 1.962 0 0 0 .24 10.378v2.656a1.962 1.962 0 0 0 1.956 1.962h.824v.558c.001.53.43.96.959.961h1.514c.528 0 .957-.43.958-.96v-.559h9.721v.558c.001.53.43.96.959.961h1.514a.96.96 0 0 0 .958-.96v-.559h.824a1.962 1.962 0 0 0 1.957-1.962v-2.656a1.962 1.962 0 0 0-1.957-1.963zM3.486 3.935a2.566 2.566 0 0 1 2.558-2.567H16.58a2.566 2.566 0 0 1 2.558 2.567v4.48h-.829v-1.57c0-.633-.513-1.147-1.144-1.148h-4.331c-.632.001-1.144.515-1.144 1.148v1.57h-.755v-1.57c0-.633-.512-1.147-1.144-1.148H5.46c-.632.001-1.144.515-1.145 1.148v1.57h-.83v-4.48zm13.919 4.48h-4.813v-1.57c0-.133.108-.242.241-.242h4.33c.134 0 .242.109.242.242v1.57zm-7.374 0H5.218v-1.57c0-.133.108-.242.242-.242h4.33c.133 0 .241.109.241.242v1.57zm-7.835.906h18.23c.582 0 1.053.473 1.054 1.057v1.986H1.143v-1.986c0-.584.472-1.056 1.053-1.057zm3.352 6.233c0 .03-.025.055-.055.055H3.978a.055.055 0 0 1-.054-.055v-.558h1.624v.558zm13.152 0c0 .03-.025.055-.055.055H17.13a.055.055 0 0 1-.055-.055v-.558H18.7v.558zm1.727-1.463H2.197a1.055 1.055 0 0 1-1.026-.821h20.281c-.11.48-.535.82-1.025.82z" stroke-width=".2"/>
</symbol><symbol id="svg-aside-chevron" viewBox="0 0 6 10">
    <path d="M.78 5.638l3.695 3.707a.307.307 0 0 0 .435-.008.31.31 0 0 0 0-.429L1.433 5.42 4.91 1.932a.31.31 0 0 0 0-.437.307.307 0 0 0-.435 0L.78 5.202a.31.31 0 0 0 0 .436z"/>
</symbol><symbol id="svg-aside-comparsion" viewBox="0 0 19 19">
    <path d="M15.24 1.863h-12c-.424 0-.831.17-1.131.47-.3.301-.469.71-.469 1.135v12.04c0 .426.169.834.469 1.135.3.301.707.47 1.131.47h12c.425 0 .832-.169 1.132-.47.3-.3.468-.709.468-1.135V3.468c0-.425-.168-.833-.468-1.135-.3-.3-.707-.47-1.132-.47zm-12 13.922a.275.275 0 0 1-.275-.277V8.836h6.65a.274.274 0 0 1 .275.276v6.673H3.24zm12.275-.277a.277.277 0 0 1-.275.277h-4.025V9.112c0-.425-.168-.834-.468-1.135-.3-.3-.707-.47-1.132-.47h-6.65V3.468a.277.277 0 0 1 .275-.276h12a.274.274 0 0 1 .275.276v12.04z" stroke-width=".2"/>
</symbol><symbol id="svg-aside-heart" viewBox="0 0 19 17">
    <path d="M17.344 1.406C16.462.542 15.244.11 13.687.11c-.43 0-.87.075-1.317.225-.448.15-.865.352-1.25.606-.386.254-.717.493-.995.716-.278.223-.542.46-.792.71a9.648 9.648 0 0 0-.791-.71c-.278-.223-.61-.461-.995-.716a5.325 5.325 0 0 0-1.25-.606A4.142 4.142 0 0 0 4.979.11c-1.556 0-2.774.432-3.656 1.296C.44 2.27 0 3.47 0 5.001c0 .467.082.948.245 1.443.163.494.349.916.557 1.264.208.349.445.688.708 1.02.264.33.457.558.579.684.121.125.217.216.286.272l6.5 6.291a.623.623 0 0 0 .458.189c.18 0 .334-.063.459-.189l6.49-6.27C17.871 8.108 18.666 6.54 18.666 5c0-1.533-.441-2.73-1.323-3.595zm-1.969 7.316l-6.042 5.842-6.052-5.853c-1.298-1.302-1.947-2.54-1.947-3.71 0-.564.074-1.062.223-1.494.15-.432.34-.775.573-1.03.233-.254.516-.461.85-.622.333-.16.66-.268.979-.324.319-.055.66-.083 1.02-.083.361 0 .75.089 1.167.266.417.178.8.401 1.15.67.352.268.652.518.902.752.25.233.458.447.625.643.125.153.295.23.51.23a.624.624 0 0 0 .51-.23c.168-.196.376-.41.626-.643.25-.234.55-.484.9-.753a5.32 5.32 0 0 1 1.152-.669c.416-.177.806-.266 1.167-.266.36 0 .7.028 1.02.083.32.056.646.164.98.324.333.16.616.368.849.622.232.255.423.598.573 1.03.149.432.223.93.223 1.494 0 1.17-.652 2.411-1.958 3.721z"/>
</symbol><symbol id="svg-aside-list" viewBox="0 0 12 11">
    <path d="M10.894 2.116C8.07.43 5.236.297 2.697 1.706 1.245 2.505.224 3.829.035 5.189A3.127 3.127 0 0 0 .67 7.573a8.515 8.515 0 0 1 3.467-3.475.22.22 0 0 1 .328.252.22.22 0 0 1-.112.133C1.478 6.09.542 8.504.009 10.663c0 .048.015.095.044.133.083.106.229.084.497.088h.475c.48 0 .484-.031.515-.186.133-.665.34-1.314.616-1.933 2.138.945 5.073-.442 6.3-1.925a6.396 6.396 0 0 0 1.079-2.128c.299-.821.585-1.616 1.377-2.207a.221.221 0 0 0 0-.367l-.018-.022z"/>
</symbol><symbol id="svg-aside-loading" viewBox="0 0 12 13">
    <path d="M10.928 5.49a.37.37 0 0 0-.378-.308.375.375 0 0 0-.363.326 3.375 3.375 0 0 1-.168.681 4.231 4.231 0 0 1-1.434 2.005 4.21 4.21 0 0 1-2.303.862 2.908 2.908 0 0 1-.283.014 1.123 1.123 0 0 0-1.125 1.13A1.131 1.131 0 0 0 6 11.327a4.957 4.957 0 0 0 3.238-1.184 4.988 4.988 0 0 0 1.69-3.013 4.752 4.752 0 0 0 0-1.64z"/>
    <path d="M7.125 2.423A1.132 1.132 0 0 0 6 1.294a4.957 4.957 0 0 0-3.238 1.184 4.988 4.988 0 0 0-1.69 3.013 4.753 4.753 0 0 0 0 1.64.376.376 0 0 0 .368.309h.01a.375.375 0 0 0 .363-.326 3.37 3.37 0 0 1 .168-.681A4.256 4.256 0 0 1 3.53 4.345 4.233 4.233 0 0 1 6 3.552a1.125 1.125 0 0 0 1.125-1.13z"/>
</symbol><symbol id="svg-aside-property" viewBox="0 0 22 17">
    <path d="M21.16 15.873h-.922v-3.532a.322.322 0 0 0-.32-.32h-2.163V4.635a.322.322 0 0 0-.32-.321h-2.16V.783a.322.322 0 0 0-.32-.321h-7.44a.32.32 0 0 0-.32.32v3.533h-2.16a.32.32 0 0 0-.32.32v7.385H2.552a.32.32 0 0 0-.32.321v3.532H1.32a.32.32 0 0 0-.32.321.322.322 0 0 0 .32.321h19.84a.32.32 0 0 0 .32-.32.322.322 0 0 0-.32-.322zM17.134 4.957v7.063h-.32V5.278h-1.228v6.742h-.32V4.957h1.868zm-.62 2.89v1.605h-.618V7.846h.618zm-.618-.643V5.6h.618v1.605h-.618zm.618 2.89v1.605h-.618v-1.605h.618zM2.862 12.663h1.863v3.21H2.862v-3.21zm2.484-7.706h1.859v10.916h-1.86V4.957zm2.48-3.853h1.241v8.669a.322.322 0 0 0 .31.399.32.32 0 0 0 .311-.4V1.105h4.966V12.02H10.31a.32.32 0 0 0-.32.321v3.532H7.826V1.103zm2.793 11.558h8.999v3.211h-8.999v-3.21z" stroke-width=".2"/>
    <path d="M5.656 5.278v6.742h1.238V5.278H5.656zm.928 6.421h-.618v-1.605h.618v1.605zm0-2.247h-.618V7.846h.618v1.606zm0-2.248h-.618V5.6h.618v1.605z" stroke-width=".2"/>
</symbol><symbol id="svg-aside-telegram" viewBox="0 0 20 23">
    <path d="M9.894 18.137l-.642-.79a5.805 5.805 0 0 0-3.24-2.005l.658-.742 1.762-2.002-3.158 1.733a5.855 5.855 0 0 0-1.306-3.487l-.642-.79 11.03-2.321-4.462 10.404z"/>
</symbol><symbol id="svg-chart-fire" viewBox="0 0 24 24">
    <path d="M12 22c-4 0-8-2.7-8-8 0-1.7.6-4 1.2-5.7.122-.345.467-.6.8-.6.436 0 .749.298.9.6.2.6.4 1.2.6 1.7.36.959.8 1.5 1.5 2-.416-1.357-.41-2.63 0-4 .9-3 2.5-4.5 3.7-5.3l.2-.1c.2-.1.5 0 .7.1.2.1.4.4.4.8 0 1 .576 3.076 2 4.5 1.849 1.6 4 3.6 4 7 0 3.9-3.6 7-8 7zM6.1 10.5c-.4 1.4-.6 2.6-.6 3.5 0 4.5 3.4 6.5 6.5 6.5 3.6 0 6.5-2.5 6.5-5.5 0-4-3.5-5-5-8-.503-.85-.576-1.456-.8-2.5-.8.8-1.7 2-2.2 3.8-.388 1.165-.31 2.3-.1 3.2.2.6 0 1.2-.4 1.6-.5.4-1.1.5-1.7.2-1.3-.8-1.8-1.8-2.2-2.8z" opacity=".3"/>
</symbol><symbol id="svg-header-burger" viewBox="0 0 18 14">
    <path stroke-width="1.5" d="M0 1.25h18"/>
    <path stroke-width="1.5" d="M0 7.25h18"/>
    <path stroke-width="1.5" d="M0 13.25h9"/>
</symbol><symbol id="svg-header-search" viewBox="0 0 24 24">
    <path fill-rule="evenodd" clip-rule="evenodd" d="M17.872 16.812a9 9 0 1 0-1.06 1.06l2.658 2.658a.75.75 0 1 0 1.06-1.06l-2.658-2.658zM18.5 11a7.5 7.5 0 1 1-15 0 7.5 7.5 0 0 1 15 0z" opacity=".2"/>
</symbol><symbol id="svg-header-tune" viewBox="0 0 24 24">
    <path fill-rule="evenodd" clip-rule="evenodd" d="M6.325 17.75H4a.75.75 0 0 1 0-1.5h2.325a3.751 3.751 0 0 1 7.35 0H20a.75.75 0 0 1 0 1.5h-6.325a3.751 3.751 0 0 1-7.35 0zM7.75 17a2.25 2.25 0 1 1 4.5 0 2.25 2.25 0 0 1-4.5 0z"/>
    <path fill-rule="evenodd" clip-rule="evenodd" d="M10.325 7.75H4a.75.75 0 0 1 0-1.5h6.325a3.751 3.751 0 0 1 7.35 0H20a.75.75 0 0 1 0 1.5h-2.325a3.751 3.751 0 0 1-7.35 0zM11.75 7a2.25 2.25 0 1 1 4.5 0 2.25 2.25 0 0 1-4.5 0z"/>
</symbol><symbol id="svg-invite-tabs" viewBox="0 0 16 4">
    <path d="M2 4a2 2 0 1 0 0-4 2 2 0 0 0 0 4z"/>
    <path d="M8 4a2 2 0 1 0 0-4 2 2 0 0 0 0 4z"/>
    <path d="M14 4a2 2 0 1 0 0-4 2 2 0 0 0 0 4z"/>
</symbol><symbol id="svg-invite__group" viewBox="0 0 24 24">
    <g opacity=".3">
        <path d="M18.052 14.762c.086.134.21.238.353.306A3.25 3.25 0 0 1 20.25 18v2a.75.75 0 0 0 1.5 0v-2A4.75 4.75 0 0 0 17 13.25c-.109 0-.158.14-.076.211a6.03 6.03 0 0 1 1.128 1.301z"/>
        <path fill-rule="evenodd" clip-rule="evenodd" d="M7 14.75A3.25 3.25 0 0 0 3.75 18v2a.75.75 0 0 1-1.5 0v-2A4.75 4.75 0 0 1 7 13.25h6A4.75 4.75 0 0 1 17.75 18v2a.75.75 0 0 1-1.5 0v-2A3.25 3.25 0 0 0 13 14.75H7z"/>
        <path d="M14.87 9.557c.09-.169.23-.304.396-.4a2.499 2.499 0 0 0 0-4.314 1.03 1.03 0 0 1-.396-.4 5.514 5.514 0 0 0-.933-1.283C13.88 3.1 13.917 3 14 3a4 4 0 0 1 0 8c-.083 0-.12-.1-.063-.16.37-.378.685-.81.933-1.283z"/>
        <path fill-rule="evenodd" clip-rule="evenodd" d="M10 9.5a2.5 2.5 0 1 0 0-5 2.5 2.5 0 0 0 0 5zm0 1.5a4 4 0 1 0 0-8 4 4 0 0 0 0 8z"/>
    </g>
</symbol><symbol id="svg-ivite__close" viewBox="0 0 10 10">
    <path d="M.948 8.02L3.968 5 .947 1.98 1.981.949 5 3.968 8.02.947l1.032 1.033L6.032 5l3.02 3.02-1.033 1.032L5 6.032l-3.02 3.02L.949 8.019z"/>
</symbol><symbol id="svg-link-compass" viewBox="0 0 24 24">
    <path fill-rule="evenodd" clip-rule="evenodd" d="M12 20.5a8.5 8.5 0 1 0 0-17 8.5 8.5 0 0 0 0 17zM22 12c0 5.523-4.477 10-10 10S2 17.523 2 12 6.477 2 12 2s10 4.477 10 10z"/>
    <path fill-rule="evenodd" clip-rule="evenodd" d="M14.937 9.063l-4.06 1.522a.5.5 0 0 0-.292.293l-1.522 4.059 4.06-1.522a.5.5 0 0 0 .292-.293l1.522-4.059zm.503-1.79L10.351 9.18a2 2 0 0 0-1.17 1.17l-1.909 5.09c-.301.803.484 1.588 1.288 1.286l5.089-1.908a2 2 0 0 0 1.17-1.17l1.908-5.09c.302-.803-.483-1.588-1.287-1.287z"/>
</symbol><symbol id="svg-link-home" viewBox="0 0 24 24">
    <path fill-rule="evenodd" clip-rule="evenodd" d="M5 22a3 3 0 0 1-3-3v-7.664a3 3 0 0 1 .993-2.23l7-6.3a3 3 0 0 1 4.014 0l7 6.3a3 3 0 0 1 .993 2.23V19a3 3 0 0 1-3 3H5zm15.5-10.664V19a1.5 1.5 0 0 1-1.5 1.5h-3V15a3 3 0 0 0-3-3h-2a3 3 0 0 0-3 3v5.5H5A1.5 1.5 0 0 1 3.5 19v-7.664c0-.425.18-.83.497-1.115l7-6.3a1.5 1.5 0 0 1 2.006 0l7 6.3a1.5 1.5 0 0 1 .497 1.115zM9.5 20.5V15a1.5 1.5 0 0 1 1.5-1.5h2a1.5 1.5 0 0 1 1.5 1.5v5.5h-5z"/>
</symbol><symbol id="svg-link-person" viewBox="0 0 24 24">
    <path fill-rule="evenodd" clip-rule="evenodd" d="M12 10.5a3.5 3.5 0 1 0 0-7 3.5 3.5 0 0 0 0 7zm0 1.5a5 5 0 1 0 0-10 5 5 0 0 0 0 10z"/>
    <path fill-rule="evenodd" clip-rule="evenodd" d="M9 15.75A4.25 4.25 0 0 0 4.75 20v1a.75.75 0 0 1-1.5 0v-1A5.75 5.75 0 0 1 9 14.25h6A5.75 5.75 0 0 1 20.75 20v1a.75.75 0 0 1-1.5 0v-1A4.25 4.25 0 0 0 15 15.75H9z"/>
</symbol><symbol id="svg-link-power" viewBox="0 0 24 24">
    <path d="M15.733 4.673c.195-.382.665-.537 1.03-.31a9 9 0 1 1-9.525 0c.364-.227.834-.072 1.029.31.195.383.04.847-.32 1.081a7.446 7.446 0 1 0 8.106 0c-.36-.234-.515-.698-.32-1.08z"/>
    <path fill-rule="evenodd" clip-rule="evenodd" d="M12 2.25a.75.75 0 0 1 .75.75v5a.75.75 0 0 1-1.5 0V3a.75.75 0 0 1 .75-.75z"/>
</symbol><symbol id="svg-link-settings" viewBox="0 0 24 24">
    <path fill-rule="evenodd" clip-rule="evenodd" d="M12 14.5a2.5 2.5 0 1 0 0-5 2.5 2.5 0 0 0 0 5zm4-2.5a4 4 0 1 1-8 0 4 4 0 0 1 8 0z"/>
    <path fill-rule="evenodd" clip-rule="evenodd" d="M10.905 2.842l-.388 1.163c-.327.98-1.044 1.674-1.795 2.093a6.763 6.763 0 0 0-.19.11c-.739.443-1.7.718-2.714.51l-1.201-.246a.5.5 0 0 0-.534.24l-.62 1.076a.5.5 0 0 0 .058.581l.815.92c.684.771.93 1.738.916 2.6-.002.074-.002.148 0 .223.013.861-.232 1.828-.916 2.6l-.815.918a.5.5 0 0 0-.059.582l.621 1.076a.5.5 0 0 0 .534.24l1.201-.246c1.014-.208 1.975.067 2.714.51.063.038.126.075.19.11.751.419 1.468 1.113 1.795 2.093l.388 1.163a.5.5 0 0 0 .474.342h1.242a.5.5 0 0 0 .474-.342l.388-1.163c.327-.98 1.044-1.674 1.795-2.093.064-.035.127-.072.19-.11.739-.443 1.7-.718 2.714-.51l1.202.246a.5.5 0 0 0 .533-.24l.62-1.076a.5.5 0 0 0-.058-.582l-.815-.919c-.684-.771-.93-1.738-.916-2.6.002-.074.002-.148 0-.223-.013-.861.232-1.828.916-2.6l.815-.919a.5.5 0 0 0 .059-.581l-.621-1.076a.5.5 0 0 0-.534-.24l-1.201.246c-1.014.208-1.975-.067-2.714-.51a6.738 6.738 0 0 0-.19-.11c-.751-.419-1.468-1.113-1.795-2.093l-.388-1.163a.5.5 0 0 0-.474-.342h-1.242a.5.5 0 0 0-.474.342zm-1.81.688c-.183.547-.6.977-1.103 1.257a8.21 8.21 0 0 0-.232.135c-.495.297-1.076.442-1.641.327l-1.202-.246a2 2 0 0 0-2.133.96l-.62 1.075a2 2 0 0 0 .235 2.327l.815.919c.382.43.547 1.005.538 1.58-.002.09-.002.181 0 .271.009.576-.156 1.15-.538 1.581l-.815.92a2 2 0 0 0-.236 2.326l.621 1.076a2 2 0 0 0 2.133.96l1.202-.247c.565-.115 1.146.03 1.64.327.078.046.155.091.233.135.504.28.92.71 1.102 1.257l.388 1.163A2 2 0 0 0 11.379 23h1.242a2 2 0 0 0 1.897-1.367l.388-1.163c.182-.547.598-.977 1.102-1.257.078-.044.155-.089.232-.135.495-.297 1.076-.442 1.641-.327l1.202.246a2 2 0 0 0 2.133-.96l.62-1.075a2 2 0 0 0-.235-2.327l-.815-.919c-.382-.43-.547-1.005-.538-1.58.002-.09.002-.181 0-.272-.009-.575.156-1.15.538-1.58l.815-.92a2 2 0 0 0 .236-2.326l-.621-1.076a2 2 0 0 0-2.133-.96l-1.202.247c-.565.115-1.146-.03-1.64-.327a8.231 8.231 0 0 0-.233-.135c-.504-.28-.92-.71-1.102-1.257l-.388-1.162A2 2 0 0 0 12.621 1h-1.242a2 2 0 0 0-1.897 1.368L9.094 3.53z"/>
</symbol><symbol id="svg-link-union" viewBox="0 0 20 20">
    <path fill-rule="evenodd" clip-rule="evenodd" d="M5 .25a.75.75 0 0 1 .75.75v1h8.5V1a.75.75 0 0 1 1.5 0v1H17a3 3 0 0 1 3 3v12a3 3 0 0 1-3 3H3a3 3 0 0 1-3-3V5a3 3 0 0 1 3-3h1.25V1A.75.75 0 0 1 5 .25zm9.25 3.25V5a.75.75 0 0 0 1.5 0V3.5H17A1.5 1.5 0 0 1 18.5 5v3.25h-17V5A1.5 1.5 0 0 1 3 3.5h1.25V5a.75.75 0 0 0 1.5 0V3.5h8.5zM1.5 9.75V17A1.5 1.5 0 0 0 3 18.5h14a1.5 1.5 0 0 0 1.5-1.5V9.75h-17z"/>
</symbol><symbol id="svg-swiper__chevron" viewBox="0 0 8 16">
    <path fill-rule="evenodd" clip-rule="evenodd" d="M.22 15.03a.75.75 0 0 1 0-1.06l5.793-5.793a.25.25 0 0 0 0-.354L.22 2.03A.75.75 0 0 1 1.28.97l5.793 5.793a1.75 1.75 0 0 1 0 2.474L1.28 15.03a.75.75 0 0 1-1.06 0z"/>
</symbol><symbol id="svg-swiper__compass" viewBox="0 0 24 24">
    <g opacity=".3" fill-rule="evenodd" clip-rule="evenodd">
        <path d="M12 20.5a8.5 8.5 0 1 0 0-17 8.5 8.5 0 0 0 0 17zM22 12c0 5.523-4.477 10-10 10S2 17.523 2 12 6.477 2 12 2s10 4.477 10 10z"/>
        <path d="M14.937 9.063l-4.06 1.522a.5.5 0 0 0-.292.293l-1.522 4.059 4.06-1.522a.5.5 0 0 0 .292-.293l1.522-4.059zm.503-1.79L10.351 9.18a2 2 0 0 0-1.17 1.17l-1.909 5.09c-.301.803.484 1.588 1.288 1.286l5.089-1.908a2 2 0 0 0 1.17-1.17l1.908-5.09c.302-.803-.483-1.588-1.287-1.287z"/>
    </g>
</symbol><symbol id="svg-swiper__icon" viewBox="0 0 11 17">
    <path d="M9.483.644h-7.92C.792.644.16 1.345.16 2.203v13.606c0 .37.193.72.49.877a.816.816 0 0 0 .93-.117l.017-.02 3.925-3.684 3.925 3.684.018.02c.158.136.35.214.543.214a.739.739 0 0 0 .386-.117c.298-.156.49-.506.49-.877V2.203c0-.858-.63-1.56-1.402-1.56z"/>
</symbol><symbol id="svg-swiper__location" viewBox="0 0 12 15">
    <path d="M5.931.1C3.027.1.672 2.516.672 5.498c0 2.41 3.437 6.803 4.754 8.398a.66.66 0 0 0 .505.242.643.643 0 0 0 .505-.242C7.753 12.3 11.19 7.908 11.19 5.498 11.19 2.516 8.835.1 5.93.1zm0 7.019c-.944 0-1.71-.786-1.71-1.755 0-.97.766-1.755 1.71-1.755s1.71.785 1.71 1.755c0 .969-.766 1.755-1.71 1.755z"/>
</symbol></svg>